<?xml version="1.0" encoding="utf-8"?>
<!-- Generator: Adobe Illustrator 21.0.0, SVG Export Plug-In . SVG Version: 6.00 Build 0)  -->
<svg version="1.1" id="Layer_1" xmlns="http://www.w3.org/2000/svg" xmlns:xlink="http://www.w3.org/1999/xlink" x="0px" y="0px"
	 viewBox="0 0 356 232" style="enable-background:new 0 0 356 232;" xml:space="preserve">
<style type="text/css">
	.st0{fill-rule:evenodd;clip-rule:evenodd;fill:#EC1C24;}
	.st1{fill:#ED1C24;}
	.st2{fill:#414042;}
</style>
<g>
	<path class="st0" d="M71.9,42.1c-0.1-0.2-0.3-0.2-0.4,0c-0.3,0.8-0.8,1.9-1.1,2.7c-0.2,0.4-0.3,0.8-0.4,1c-0.3,0.4-0.7,0.7-1.3,0.4
		c-0.4-0.2-0.9-0.6-1.3-0.9c-0.2-0.1-0.4,0-0.3,0.2c0.3,1.8,0.8,3.9,1.1,5.8c0.1,0.5,0.3,1.1-0.1,1.2c-0.5,0.1-0.8-0.4-1.1-0.6
		c-0.7-0.8-1.4-1.7-2-2.4c-0.1-0.1-0.3-0.1-0.4,0.1c-0.1,0.3-0.1,0.6-0.3,0.8c-0.1,0.3-0.4,0.6-0.7,0.7c-0.4,0.1-1.2-0.1-1.8-0.2
		c-0.5-0.1-0.9-0.2-1.3-0.2c-0.2,0-0.3,0.1-0.3,0.3c0.2,0.8,0.5,1.7,0.8,2.5c0.1,0.4,0.3,0.7,0.3,1c-0.1,0.7-0.8,0.8-1.4,1
		c-0.2,0.1-0.2,0.3-0.1,0.4c1.5,1.1,3,2.3,4.5,3.4c0.5,0.4,1.1,0.7,1.5,1.2c0,0,0,0.1,0,0.1c0.1,0.9-0.3,1.4-0.5,2
		c-0.1,0.2,0.1,0.3,0.3,0.3c1.3-0.3,2.8-0.5,4.2-0.8c0.4-0.1,0.9-0.2,1.3,0c0.1,0,0.1,0.1,0.1,0.2c-0.1,2-0.2,4.2-0.2,6
		c0,0.1,0.1,0.2,0.2,0.2h0.9c0.1,0,0.2-0.1,0.2-0.2c-0.1-2.1-0.2-3.9-0.2-6c0-0.1,0-0.1,0.1-0.2c0.4-0.3,0.9-0.1,1.4,0
		c1.3,0.3,2.9,0.5,4.2,0.8c0.2,0,0.3-0.1,0.3-0.3c-0.2-0.6-0.6-1.1-0.5-2c0,0,0-0.1,0-0.1c0.4-0.5,0.9-0.9,1.5-1.3
		c1.5-1.1,3.1-2.3,4.6-3.4c0.1-0.1,0.1-0.3-0.1-0.4c-0.3-0.1-0.8-0.2-1-0.4c-0.1-0.1-0.3-0.3-0.4-0.6c-0.1-0.3,0.1-0.6,0.3-1
		c0.2-0.8,0.5-1.8,0.7-2.6c0-0.2-0.1-0.3-0.3-0.3c-0.4,0.1-0.8,0.2-1.3,0.2c-0.7,0.1-1.5,0.3-1.9,0.1c-0.5-0.2-0.6-0.8-0.8-1.4
		c-0.1-0.2-0.3-0.2-0.4-0.1c0,0.1-0.1,0.1-0.1,0.2c-0.6,0.7-1.2,1.4-1.9,2.2c-0.3,0.4-0.7,1-1.2,0.6c-0.1,0-0.1-0.1-0.1-0.2
		c0.3-2.3,0.8-4.4,1.2-6.6c0-0.2-0.2-0.3-0.4-0.2c0,0,0,0,0,0c-0.4,0.2-0.9,0.7-1.4,0.9c-0.6,0.2-0.8-0.1-1.2-0.4c0,0,0,0-0.1-0.1
		C73,44.5,72.4,43.3,71.9,42.1z"/>
	
		<rect x="36.5" y="36.2" transform="matrix(-1 -4.465507e-11 4.465507e-11 -1 88.9829 109.4323)" class="st0" width="15.9" height="37"/>
	<path class="st1" d="M13.1,55.2c0,26.8,26.3,48.7,58.7,48.7h53.5c0.9,0,1.4-1.1,0.9-1.8l-10.4-13.2c-0.4-0.5-0.3-1.1,0.1-1.5
		c9.1-8.6,14.6-19.8,14.6-32.1c0-26.8-26.3-48.7-58.7-48.7S13.1,28.4,13.1,55.2z M20.8,55.2c0-22.6,22.8-40.9,50.9-40.9
		s50.9,18.4,50.9,40.9S99.8,96.1,71.7,96.1S20.8,77.8,20.8,55.2z"/>
	
		<rect x="92" y="36.2" transform="matrix(-1 -4.488333e-11 4.488333e-11 -1 199.9219 109.4323)" class="st0" width="15.9" height="37"/>
</g>
<g>
	<path class="st2" d="M184.1,42.9c-0.3-0.3-0.6-0.7-0.8-1l-5.7-10V52c0,0.4-0.2,0.8-0.5,1.2c-0.3,0.3-0.7,0.5-1.2,0.5H168
		c-0.4,0-0.8-0.2-1.2-0.5c-0.3-0.3-0.5-0.7-0.5-1.2V12.8c0-0.4,0.2-0.8,0.5-1.2c0.3-0.3,0.7-0.5,1.2-0.5h7c0.8,0,1.4,0.2,1.8,0.7
		c0.4,0.4,0.7,0.8,0.8,1l9.8,16.8l9.8-16.8c0.1-0.2,0.4-0.5,0.8-1c0.4-0.4,1-0.7,1.8-0.7h7c0.4,0,0.8,0.2,1.2,0.5
		c0.3,0.3,0.5,0.7,0.5,1.2V52c0,0.4-0.2,0.8-0.5,1.2c-0.3,0.3-0.7,0.5-1.2,0.5H199c-0.4,0-0.8-0.2-1.2-0.5c-0.3-0.3-0.5-0.7-0.5-1.2
		V31.9l-5.7,10c-0.2,0.3-0.5,0.7-0.8,1c-0.3,0.3-0.8,0.5-1.4,0.5h-3.9C184.9,43.4,184.4,43.3,184.1,42.9z"/>
	<path class="st2" d="M239.5,11.2c0.8,0,1.4,0.2,1.8,0.7c0.4,0.4,0.7,0.9,0.9,1.3l13.2,38.2c0.2,0.4,0.2,0.7,0.2,0.9
		c0,0.4-0.1,0.7-0.4,0.9c-0.3,0.3-0.6,0.4-0.9,0.4h-7.6c-0.8,0-1.4-0.2-1.7-0.5c-0.3-0.3-0.6-0.7-0.6-1l-1.7-5h-16.1l-1.7,5
		c-0.1,0.3-0.3,0.7-0.6,1c-0.3,0.3-0.9,0.5-1.7,0.5h-7.6c-0.4,0-0.7-0.1-0.9-0.4c-0.3-0.3-0.4-0.6-0.4-0.9c0-0.2,0.1-0.5,0.2-0.9
		L227,13.2c0.2-0.4,0.5-0.9,0.9-1.3c0.4-0.4,1-0.7,1.9-0.7H239.5z M229.7,37.7h9.8l-4.9-14.6L229.7,37.7z"/>
	<path class="st2" d="M296.6,51.6c0.1,0.2,0.2,0.4,0.2,0.7c0,0.4-0.1,0.7-0.4,0.9c-0.3,0.3-0.6,0.4-0.9,0.4h-9.6
		c-0.6,0-1-0.1-1.4-0.4s-0.7-0.6-1.1-1l-11.5-14.4V52c0,0.4-0.2,0.8-0.5,1.2c-0.3,0.3-0.7,0.5-1.2,0.5h-7.9c-0.4,0-0.8-0.2-1.2-0.5
		c-0.3-0.3-0.5-0.7-0.5-1.2V12.8c0-0.4,0.2-0.8,0.5-1.2c0.3-0.3,0.7-0.5,1.2-0.5h7.9c0.4,0,0.8,0.2,1.2,0.5c0.3,0.3,0.5,0.7,0.5,1.2
		v12.8l10.7-13.1c0.2-0.2,0.5-0.5,0.8-0.8c0.3-0.3,0.9-0.5,1.6-0.5h9.5c0.4,0,0.7,0.1,0.9,0.4c0.3,0.3,0.4,0.6,0.4,0.9
		c0,0.3-0.1,0.5-0.2,0.7l-15,18.3L296.6,51.6z"/>
	<path class="st2" d="M331.8,43.9c0.4,0,0.8,0.2,1.2,0.5c0.3,0.3,0.5,0.7,0.5,1.2V52c0,0.4-0.2,0.8-0.5,1.2
		c-0.3,0.3-0.7,0.5-1.2,0.5h-28.8c-0.4,0-0.8-0.2-1.2-0.5c-0.3-0.3-0.5-0.7-0.5-1.2V12.8c0-0.4,0.2-0.8,0.5-1.2
		c0.3-0.3,0.7-0.5,1.2-0.5h28.3c0.4,0,0.8,0.2,1.2,0.5c0.3,0.3,0.5,0.7,0.5,1.2v6.4c0,0.4-0.2,0.8-0.5,1.2c-0.3,0.3-0.7,0.5-1.2,0.5
		h-18.7v6.6H330c0.4,0,0.8,0.2,1.2,0.5c0.3,0.3,0.5,0.7,0.5,1.2v6.4c0,0.4-0.2,0.8-0.5,1.2c-0.3,0.3-0.7,0.5-1.2,0.5h-17.3v6.8
		H331.8z"/>
	<path class="st2" d="M188.6,108.6c0,0.4-0.2,0.8-0.5,1.2c-0.3,0.3-0.7,0.5-1.2,0.5H179c-0.4,0-0.8-0.2-1.2-0.5
		c-0.3-0.3-0.5-0.7-0.5-1.2V95.7l-14-25.8c-0.2-0.3-0.2-0.5-0.2-0.8c0-0.4,0.1-0.7,0.4-0.9c0.3-0.3,0.6-0.4,0.9-0.4h8.3
		c0.8,0,1.4,0.2,1.8,0.6c0.4,0.4,0.6,0.7,0.7,0.9l7.6,14.9l7.7-14.9c0.1-0.2,0.3-0.5,0.7-0.9c0.4-0.4,1-0.6,1.8-0.6h8.3
		c0.4,0,0.7,0.1,0.9,0.4c0.3,0.3,0.4,0.6,0.4,0.9c0,0.2-0.1,0.5-0.2,0.8l-14,25.8V108.6z"/>
	<path class="st2" d="M204.5,83.7c0.1-2.3,0.6-4.4,1.5-6.4c0.9-2,2.1-3.7,3.7-5.2c1.6-1.5,3.5-2.6,5.8-3.5c2.3-0.9,4.9-1.3,7.9-1.3
		c3,0,5.6,0.4,7.9,1.3c2.3,0.9,4.3,2,5.9,3.5c1.6,1.5,2.8,3.2,3.7,5.2c0.9,2,1.4,4.1,1.5,6.4c0.1,1.7,0.1,3.6,0.1,5.5
		c0,1.9,0,3.7-0.1,5.3c-0.1,2.3-0.6,4.4-1.5,6.4c-0.9,2-2.1,3.8-3.7,5.2c-1.6,1.5-3.5,2.7-5.9,3.5c-2.3,0.8-4.9,1.3-7.9,1.3
		c-3,0-5.6-0.4-7.9-1.3c-2.3-0.8-4.2-2-5.8-3.5c-1.6-1.5-2.8-3.2-3.7-5.2c-0.9-2-1.4-4.1-1.5-6.4c-0.1-1.7-0.1-3.4-0.1-5.3
		C204.3,87.2,204.4,85.4,204.5,83.7z M231.1,94.1c0-0.7,0.1-1.5,0.1-2.4c0-0.9,0.1-1.8,0.1-2.7c0-0.9,0-1.8-0.1-2.7
		c0-0.9-0.1-1.6-0.1-2.3c-0.1-1-0.3-1.9-0.6-2.8c-0.3-0.8-0.8-1.6-1.5-2.2c-0.6-0.6-1.4-1.1-2.3-1.5c-0.9-0.4-2-0.5-3.3-0.5
		c-1.3,0-2.3,0.2-3.3,0.5c-0.9,0.4-1.7,0.9-2.3,1.5c-0.6,0.6-1.1,1.4-1.5,2.2c-0.3,0.8-0.6,1.8-0.6,2.8c-0.1,0.7-0.1,1.5-0.2,2.3
		c0,0.9,0,1.8,0,2.7c0,0.9,0,1.8,0,2.7c0,0.9,0.1,1.7,0.2,2.4c0.2,2,0.9,3.7,2.1,5s3.1,2,5.6,2s4.4-0.7,5.6-2S230.9,96.2,231.1,94.1
		z"/>
	<path class="st2" d="M284.2,67.8c0.4,0,0.8,0.2,1.2,0.5c0.3,0.3,0.5,0.7,0.5,1.2v24.2c0,2.8-0.4,5.3-1.3,7.4
		c-0.9,2.1-2.2,3.9-3.8,5.4s-3.6,2.6-5.9,3.3c-2.3,0.7-4.8,1.1-7.5,1.1c-2.8,0-5.3-0.4-7.5-1.1c-2.3-0.7-4.2-1.9-5.8-3.3
		s-2.9-3.3-3.8-5.4c-0.9-2.1-1.3-4.6-1.3-7.4V69.5c0-0.4,0.2-0.8,0.5-1.2c0.3-0.3,0.7-0.5,1.2-0.5h7.9c0.4,0,0.8,0.2,1.2,0.5
		c0.3,0.3,0.5,0.7,0.5,1.2v24c0,2.4,0.6,4.3,1.8,5.7c1.2,1.4,3,2.1,5.4,2.1c2.4,0,4.2-0.7,5.4-2.1c1.2-1.4,1.8-3.3,1.8-5.7v-24
		c0-0.4,0.2-0.8,0.5-1.2c0.3-0.3,0.7-0.5,1.2-0.5H284.2z"/>
	<path class="st2" d="M312,67.8c2.7,0,5.1,0.3,7.2,0.8c2.1,0.6,3.9,1.4,5.4,2.5c1.5,1.1,2.6,2.6,3.4,4.3c0.8,1.8,1.2,3.8,1.2,6.2
		c0,3-0.6,5.6-1.9,7.6c-1.3,2-3,3.5-5.3,4.6l7.5,14.4c0.1,0.2,0.2,0.5,0.2,0.7c0,0.4-0.1,0.7-0.4,0.9c-0.3,0.3-0.6,0.4-0.9,0.4H320
		c-0.8,0-1.4-0.2-1.7-0.5c-0.3-0.4-0.6-0.7-0.8-1.1l-6.7-13h-5.6v13c0,0.4-0.2,0.8-0.5,1.2c-0.3,0.3-0.7,0.5-1.2,0.5h-7.9
		c-0.4,0-0.8-0.2-1.2-0.5c-0.3-0.3-0.5-0.7-0.5-1.2V69.5c0-0.4,0.2-0.8,0.5-1.2c0.3-0.3,0.7-0.5,1.2-0.5H312z M305.1,86.2h6.9
		c1.7,0,3.1-0.3,4.2-1c1.1-0.6,1.7-1.8,1.7-3.5c0-1.7-0.6-2.9-1.7-3.5c-1.1-0.6-2.5-1-4.2-1h-6.9V86.2z"/>
	<path class="st2" d="M179.2,166.9c-1.6,0-2.6-0.8-3.2-2.4l-12.4-37.9c-0.1-0.3-0.1-0.5-0.2-0.5c0-0.1,0-0.2,0-0.2
		c0-0.4,0.1-0.7,0.4-0.9c0.3-0.3,0.6-0.4,0.9-0.4h7.6c0.8,0,1.4,0.2,1.7,0.5c0.3,0.3,0.6,0.7,0.6,1l8.4,26.7l8.4-26.7
		c0.1-0.3,0.3-0.7,0.6-1c0.3-0.3,0.9-0.5,1.7-0.5h7.6c0.4,0,0.7,0.1,0.9,0.4c0.3,0.3,0.4,0.6,0.4,0.9c0,0.1,0,0.2,0,0.2
		c0,0.1-0.1,0.3-0.2,0.5l-12.4,37.9c-0.6,1.6-1.6,2.4-3.2,2.4H179.2z"/>
	<path class="st2" d="M205.8,140.3c0.1-2.3,0.6-4.4,1.5-6.4c0.9-2,2.1-3.7,3.7-5.2c1.6-1.5,3.5-2.6,5.8-3.5c2.3-0.9,4.9-1.3,7.9-1.3
		c3,0,5.6,0.4,7.9,1.3c2.3,0.9,4.3,2,5.9,3.5c1.6,1.5,2.8,3.2,3.7,5.2c0.9,2,1.4,4.1,1.5,6.4c0.1,1.7,0.1,3.6,0.1,5.5s0,3.7-0.1,5.3
		c-0.1,2.3-0.6,4.4-1.5,6.4c-0.9,2-2.1,3.8-3.7,5.2c-1.6,1.5-3.5,2.7-5.9,3.5c-2.3,0.8-4.9,1.3-7.9,1.3c-3,0-5.6-0.4-7.9-1.3
		c-2.3-0.8-4.2-2-5.8-3.5c-1.6-1.5-2.8-3.2-3.7-5.2c-0.9-2-1.4-4.1-1.5-6.4c-0.1-1.7-0.1-3.4-0.1-5.3S205.7,142,205.8,140.3z
		 M232.4,150.8c0-0.7,0.1-1.5,0.1-2.4c0-0.9,0.1-1.8,0.1-2.7c0-0.9,0-1.8-0.1-2.7c0-0.9-0.1-1.6-0.1-2.3c-0.1-1-0.3-1.9-0.6-2.8
		c-0.3-0.8-0.8-1.6-1.5-2.2s-1.4-1.1-2.3-1.5c-0.9-0.4-2-0.5-3.3-0.5c-1.3,0-2.3,0.2-3.3,0.5c-0.9,0.4-1.7,0.9-2.3,1.5
		c-0.6,0.6-1.1,1.4-1.5,2.2c-0.3,0.8-0.6,1.8-0.6,2.8c-0.1,0.7-0.1,1.5-0.2,2.3c0,0.9,0,1.8,0,2.7c0,0.9,0,1.8,0,2.7
		c0,0.9,0.1,1.7,0.2,2.4c0.2,2,0.9,3.7,2.1,5c1.2,1.3,3.1,2,5.6,2c2.5,0,4.4-0.7,5.6-2C231.5,154.5,232.2,152.8,232.4,150.8z"/>
	<path class="st2" d="M281.2,124.5c0.4,0,0.8,0.2,1.2,0.5c0.3,0.3,0.5,0.7,0.5,1.2v6.4c0,0.4-0.2,0.8-0.5,1.2
		c-0.3,0.3-0.7,0.5-1.2,0.5h-10.7v31.1c0,0.4-0.2,0.8-0.5,1.2c-0.3,0.3-0.7,0.5-1.2,0.5h-7.9c-0.4,0-0.8-0.2-1.2-0.5
		c-0.3-0.3-0.5-0.7-0.5-1.2v-31.1h-10.7c-0.4,0-0.8-0.2-1.2-0.5c-0.3-0.3-0.5-0.7-0.5-1.2v-6.4c0-0.4,0.2-0.8,0.5-1.2
		c0.3-0.3,0.7-0.5,1.2-0.5H281.2z"/>
	<path class="st2" d="M318.7,157.2c0.4,0,0.8,0.2,1.2,0.5c0.3,0.3,0.5,0.7,0.5,1.2v6.4c0,0.4-0.2,0.8-0.5,1.2
		c-0.3,0.3-0.7,0.5-1.2,0.5h-28.8c-0.4,0-0.8-0.2-1.2-0.5c-0.3-0.3-0.5-0.7-0.5-1.2v-39.2c0-0.4,0.2-0.8,0.5-1.2
		c0.3-0.3,0.7-0.5,1.2-0.5h28.3c0.4,0,0.8,0.2,1.2,0.5c0.3,0.3,0.5,0.7,0.5,1.2v6.4c0,0.4-0.2,0.8-0.5,1.2c-0.3,0.3-0.7,0.5-1.2,0.5
		h-18.7v6.6h17.3c0.4,0,0.8,0.2,1.2,0.5c0.3,0.3,0.5,0.7,0.5,1.2v6.4c0,0.4-0.2,0.8-0.5,1.2c-0.3,0.3-0.7,0.5-1.2,0.5h-17.3v6.8
		H318.7z"/>
	<path class="st2" d="M201.2,181.1c0.4,0,0.8,0.2,1.2,0.5c0.3,0.3,0.5,0.7,0.5,1.2V207c0,2.8-0.4,5.3-1.3,7.4
		c-0.9,2.1-2.2,3.9-3.8,5.4c-1.6,1.5-3.6,2.6-5.9,3.3c-2.3,0.7-4.8,1.1-7.5,1.1c-2.8,0-5.3-0.4-7.5-1.1c-2.3-0.7-4.2-1.8-5.8-3.3
		c-1.6-1.5-2.9-3.3-3.8-5.4c-0.9-2.1-1.3-4.6-1.3-7.4v-24.2c0-0.4,0.2-0.8,0.5-1.2c0.3-0.3,0.7-0.5,1.2-0.5h7.9
		c0.4,0,0.8,0.2,1.2,0.5c0.3,0.3,0.5,0.7,0.5,1.2v24c0,2.4,0.6,4.3,1.8,5.7c1.2,1.4,3,2.1,5.4,2.1s4.2-0.7,5.4-2.1
		c1.2-1.4,1.8-3.3,1.8-5.7v-24c0-0.4,0.2-0.8,0.5-1.2c0.3-0.3,0.7-0.5,1.2-0.5H201.2z"/>
	<path class="st2" d="M229.9,181.1c2.6,0,4.9,0.3,7,0.9c2.1,0.6,3.8,1.5,5.3,2.7c1.5,1.2,2.6,2.7,3.4,4.5s1.2,3.8,1.2,6.2
		c0,2.4-0.4,4.5-1.2,6.2s-1.9,3.3-3.4,4.4c-1.5,1.2-3.2,2.1-5.3,2.7s-4.4,0.9-7,0.9h-7.8v12.4c0,0.4-0.2,0.8-0.5,1.2
		c-0.3,0.3-0.7,0.5-1.2,0.5h-7.9c-0.4,0-0.8-0.2-1.2-0.5c-0.3-0.3-0.5-0.7-0.5-1.2v-39.2c0-0.4,0.2-0.8,0.5-1.2
		c0.3-0.3,0.7-0.5,1.2-0.5H229.9z M222.1,200.1h7.5c1.7,0,3.1-0.4,4.2-1.1c1.1-0.7,1.7-2,1.7-3.7s-0.6-2.9-1.7-3.7
		c-1.1-0.7-2.5-1.1-4.2-1.1h-7.5V200.1z"/>
</g>
</svg>
