<?xml version="1.0" encoding="utf-8"?>
<!-- Generator: Adobe Illustrator 21.0.0, SVG Export Plug-In . SVG Version: 6.00 Build 0)  -->
<svg version="1.1" id="Layer_1" xmlns="http://www.w3.org/2000/svg" xmlns:xlink="http://www.w3.org/1999/xlink" x="0px" y="0px"
	 viewBox="0 0 349 262" style="enable-background:new 0 0 349 262;" xml:space="preserve">
<style type="text/css">
	.st0{fill-rule:evenodd;clip-rule:evenodd;fill:#EC1C24;}
	.st1{fill:#ED1C24;}
	.st2{fill:#414042;}
</style>
<g>
	<path class="st0" d="M72.5,45.6c-0.1-0.2-0.4-0.2-0.4,0c-0.4,0.8-0.8,2-1.2,2.9c-0.2,0.4-0.3,0.8-0.5,1.1c-0.3,0.5-0.7,0.7-1.4,0.5
		c-0.5-0.2-0.9-0.6-1.4-0.9c-0.2-0.1-0.4,0-0.4,0.2c0.4,1.9,0.8,4.2,1.2,6.2c0.1,0.5,0.3,1.2-0.1,1.3c-0.5,0.2-0.9-0.4-1.1-0.7
		c-0.7-0.9-1.4-1.8-2.2-2.6c-0.1-0.1-0.4-0.1-0.4,0.1c-0.1,0.3-0.2,0.6-0.3,0.8c-0.1,0.3-0.4,0.7-0.8,0.7c-0.5,0.1-1.2-0.1-1.9-0.2
		c-0.5-0.1-1-0.2-1.4-0.3c-0.2,0-0.3,0.1-0.3,0.3c0.3,0.8,0.6,1.8,0.8,2.7c0.1,0.4,0.3,0.8,0.3,1c-0.1,0.7-0.8,0.8-1.5,1.1
		c-0.2,0.1-0.2,0.3-0.1,0.4c1.6,1.2,3.2,2.5,4.8,3.7c0.5,0.4,1.2,0.7,1.6,1.3c0,0,0,0.1,0,0.1c0.1,1-0.3,1.4-0.6,2.1
		c-0.1,0.2,0.1,0.4,0.3,0.3c1.4-0.3,3-0.6,4.5-0.9c0.5-0.1,1-0.3,1.4,0c0.1,0,0.1,0.1,0.1,0.2c-0.1,2.2-0.2,4.5-0.3,6.5
		c0,0.1,0.1,0.2,0.2,0.2h1c0.1,0,0.2-0.1,0.2-0.3c-0.1-2.3-0.2-4.1-0.3-6.4c0-0.1,0-0.1,0.1-0.2c0.4-0.3,1-0.1,1.5,0
		c1.4,0.3,3,0.6,4.5,0.9c0.2,0,0.3-0.1,0.3-0.3c-0.2-0.6-0.7-1.1-0.6-2.1c0,0,0-0.1,0-0.1c0.4-0.6,1-1,1.5-1.4
		c1.6-1.2,3.3-2.4,4.9-3.6c0.2-0.1,0.1-0.3-0.1-0.4c-0.4-0.1-0.8-0.2-1.1-0.4c-0.2-0.1-0.4-0.4-0.4-0.6c-0.1-0.3,0.1-0.7,0.3-1.1
		c0.3-0.8,0.6-1.9,0.8-2.8c0-0.2-0.1-0.3-0.3-0.3c-0.4,0.1-0.9,0.2-1.4,0.3c-0.7,0.1-1.6,0.4-2.1,0.1c-0.5-0.2-0.6-0.9-0.8-1.5
		c-0.1-0.2-0.3-0.2-0.4-0.1c0,0.1-0.1,0.1-0.1,0.2c-0.7,0.8-1.3,1.5-2,2.3c-0.3,0.4-0.8,1-1.3,0.6c-0.1-0.1-0.1-0.1-0.1-0.2
		c0.4-2.4,0.9-4.7,1.3-7.1c0-0.2-0.2-0.4-0.4-0.2c0,0,0,0,0,0c-0.4,0.3-1,0.8-1.4,0.9c-0.6,0.2-0.9-0.1-1.3-0.5c0,0,0-0.1-0.1-0.1
		C73.7,48.2,73.1,46.9,72.5,45.6z"/>
	
		<rect x="34.8" y="39.4" transform="matrix(-1 -4.465107e-11 4.465107e-11 -1 86.5522 118.2717)" class="st0" width="17" height="39.5"/>
	<path class="st1" d="M9.7,59.7c0,28.7,28.1,52,62.6,52h57.1c1,0,1.5-1.1,0.9-1.9l-11.1-14.1c-0.4-0.5-0.3-1.2,0.1-1.6
		c9.7-9.2,15.6-21.2,15.6-34.3c0-28.7-28.1-52-62.6-52S9.7,31,9.7,59.7z M18,59.7C18,35.6,42.4,16,72.4,16s54.3,19.6,54.3,43.7
		s-24.4,43.7-54.3,43.7S18,83.7,18,59.7z"/>
	
		<rect x="94" y="39.4" transform="matrix(-1 -4.491797e-11 4.491797e-11 -1 205.0111 118.2717)" class="st0" width="17" height="39.5"/>
</g>
<g>
	<path class="st2" d="M188.5,46.5c-0.4-0.4-0.7-0.7-0.9-1.1l-6.1-10.7v21.4c0,0.5-0.2,0.9-0.5,1.2c-0.3,0.3-0.8,0.5-1.2,0.5h-8.5
		c-0.5,0-0.9-0.2-1.2-0.5c-0.3-0.3-0.5-0.8-0.5-1.2V14.4c0-0.5,0.2-0.9,0.5-1.2c0.3-0.3,0.8-0.5,1.2-0.5h7.5c0.9,0,1.5,0.2,1.9,0.7
		c0.4,0.5,0.7,0.8,0.8,1l10.5,17.9l10.5-17.9c0.1-0.2,0.4-0.6,0.8-1c0.4-0.5,1.1-0.7,1.9-0.7h7.5c0.5,0,0.9,0.2,1.2,0.5
		c0.3,0.3,0.5,0.8,0.5,1.2v41.8c0,0.5-0.2,0.9-0.5,1.2c-0.3,0.3-0.8,0.5-1.2,0.5h-8.5c-0.5,0-0.9-0.2-1.2-0.5
		c-0.3-0.3-0.5-0.8-0.5-1.2V34.8l-6.1,10.7c-0.2,0.3-0.5,0.7-0.9,1.1c-0.4,0.4-0.9,0.6-1.5,0.6h-4.1
		C189.4,47.1,188.9,46.9,188.5,46.5z"/>
	<path class="st2" d="M220.8,48.4c0-2.9,1.1-5.2,3.3-7.1c2.2-1.9,5.7-3.2,10.7-4.1l7.6-1.3c0-1-0.3-1.9-0.8-2.6
		c-0.6-0.7-1.5-1-2.9-1c-1,0-1.8,0.1-2.3,0.4c-0.5,0.3-0.9,0.5-1.2,0.7c-0.4,0.3-0.8,0.6-1.1,0.6c-0.3,0.1-0.8,0.1-1.2,0.1h-8.2
		c-0.4,0-0.8-0.1-1.1-0.4c-0.3-0.3-0.4-0.6-0.4-1c0.1-1,0.5-2,1.3-3.1c0.8-1.1,1.8-2.1,3.2-3c1.4-0.9,3-1.7,4.9-2.3
		c1.9-0.6,3.9-0.9,6.1-0.9c2.6,0,4.9,0.3,6.9,1c1.9,0.6,3.6,1.5,4.8,2.7c1.3,1.1,2.2,2.5,2.8,4.1c0.6,1.6,0.9,3.3,0.9,5.2v19.6
		c0,0.5-0.2,0.9-0.5,1.2c-0.3,0.3-0.8,0.5-1.2,0.5H244c-0.5,0-0.9-0.2-1.2-0.5c-0.3-0.3-0.5-0.8-0.5-1.2v-1.8
		c-1,1.3-2.3,2.3-3.9,3.1c-1.5,0.8-3.6,1.1-6.1,1.1c-1.9,0-3.5-0.3-5-0.8c-1.4-0.5-2.7-1.2-3.6-2.1s-1.7-2-2.2-3.2
		C221,51.2,220.8,49.9,220.8,48.4z M235.5,49.9c0.9,0,1.8-0.2,2.7-0.5c0.8-0.3,1.5-0.8,2.1-1.3c0.6-0.6,1.1-1.2,1.4-2
		c0.3-0.8,0.5-1.6,0.5-2.4l-6,0.9c-1.2,0.2-2.1,0.6-2.8,1.1c-0.7,0.5-1.1,1.2-1.1,2c0,0.8,0.3,1.4,0.8,1.7
		C233.8,49.7,234.5,49.9,235.5,49.9z"/>
	<path class="st2" d="M272.8,34.7l8.5-9.3c0.2-0.2,0.5-0.5,1-0.7c0.4-0.3,0.9-0.4,1.6-0.4h9.5c0.4,0,0.8,0.2,1.1,0.5
		c0.3,0.3,0.5,0.7,0.5,1.1c0,0.2,0,0.4-0.1,0.6c-0.1,0.2-0.3,0.4-0.6,0.7L282.7,40l13.6,15.2c0.3,0.3,0.4,0.5,0.5,0.7
		c0.1,0.2,0.1,0.3,0.1,0.6c0,0.4-0.2,0.8-0.5,1.1c-0.3,0.3-0.7,0.5-1.1,0.5h-9.7c-0.6,0-1.2-0.1-1.6-0.3s-0.8-0.5-1.1-0.8
		l-10.3-11.6v10.9c0,0.5-0.2,0.9-0.5,1.2c-0.3,0.3-0.8,0.5-1.2,0.5h-8.2c-0.5,0-0.9-0.2-1.2-0.5c-0.3-0.3-0.5-0.8-0.5-1.2V13.7
		c0-0.5,0.2-0.9,0.5-1.2c0.3-0.3,0.8-0.5,1.2-0.5h8.2c0.5,0,0.9,0.2,1.2,0.5c0.3,0.3,0.5,0.8,0.5,1.2V34.7z"/>
	<path class="st2" d="M308.8,44.8c0,1,0.2,1.8,0.6,2.5c0.4,0.6,0.8,1.2,1.4,1.6c0.6,0.4,1.2,0.7,1.9,0.8c0.7,0.2,1.4,0.2,2,0.2
		c1.3,0,2.3-0.1,3.1-0.4c0.8-0.3,1.4-0.6,1.9-1.1c0.5-0.4,0.8-0.6,1-0.7c0.2-0.1,0.6-0.2,1.1-0.2h8.4c0.9,0,1.4,0.5,1.4,1.4
		c0,0.5-0.3,1.3-1,2.4c-0.6,1.1-1.7,2.1-3,3.2c-1.4,1.1-3.1,2.1-5.3,2.9s-4.7,1.2-7.7,1.2c-2.8,0-5.3-0.4-7.5-1.2
		c-2.2-0.8-4-2-5.5-3.5c-1.5-1.5-2.6-3.3-3.4-5.5c-0.8-2.2-1.1-4.6-1.1-7.3c0-2.5,0.4-4.8,1.1-7c0.8-2.1,1.9-4,3.4-5.5
		c1.5-1.6,3.3-2.8,5.5-3.7c2.2-0.9,4.7-1.3,7.5-1.3c3.2,0,5.8,0.5,8.1,1.6c2.2,1.1,4,2.4,5.4,4.1c1.4,1.7,2.4,3.6,3,5.7
		c0.6,2.1,0.9,4.2,0.9,6.3v1.8c0,0.5-0.2,0.9-0.5,1.2c-0.3,0.3-0.8,0.5-1.2,0.5H308.8z M314.6,32.4c-1.8,0-3.2,0.5-4.1,1.6
		c-1,1.1-1.5,2.3-1.7,3.6h11.7c-0.2-1.3-0.7-2.5-1.7-3.6C317.8,32.9,316.4,32.4,314.6,32.4z"/>
	<path class="st2" d="M193.3,116.7c0,0.5-0.2,0.9-0.5,1.2c-0.3,0.3-0.8,0.5-1.2,0.5h-8.5c-0.5,0-0.9-0.2-1.2-0.5
		c-0.3-0.3-0.5-0.8-0.5-1.2v-13.8l-15-27.5c-0.2-0.3-0.3-0.6-0.3-0.8c0-0.4,0.1-0.7,0.4-1c0.3-0.3,0.6-0.4,1-0.4h8.9
		c0.9,0,1.5,0.2,1.9,0.6c0.4,0.4,0.7,0.8,0.8,1l8.2,15.9l8.2-15.9c0.1-0.2,0.3-0.5,0.8-1c0.4-0.4,1.1-0.6,1.9-0.6h8.9
		c0.4,0,0.7,0.1,1,0.4c0.3,0.3,0.4,0.6,0.4,1c0,0.3-0.1,0.5-0.3,0.8l-15,27.5V116.7z"/>
	<path class="st2" d="M241.1,99.2c0,0.6,0.1,1.5,0.1,2.5c0,1,0,1.8-0.1,2.5c-0.1,2.1-0.6,4-1.4,5.8c-0.9,1.8-2.1,3.4-3.6,4.8
		c-1.5,1.4-3.3,2.4-5.5,3.2c-2.1,0.8-4.5,1.2-7.2,1.2s-5-0.4-7.2-1.2c-2.1-0.8-4-1.8-5.5-3.2c-1.5-1.4-2.7-2.9-3.6-4.8
		c-0.9-1.8-1.3-3.8-1.4-5.8c0-0.6-0.1-1.5-0.1-2.5c0-1,0-1.8,0.1-2.5c0-2.1,0.5-4,1.4-5.8c0.9-1.8,2.1-3.4,3.6-4.8
		c1.5-1.4,3.4-2.4,5.5-3.2c2.1-0.8,4.5-1.2,7.2-1.2s5,0.4,7.2,1.2c2.1,0.8,4,1.9,5.5,3.2c1.5,1.4,2.7,2.9,3.6,4.8
		S241,97.1,241.1,99.2z M217.5,103.8c0.1,1.6,0.7,2.9,1.8,3.9c1.1,0.9,2.5,1.4,4.2,1.4c1.7,0,3.1-0.5,4.2-1.4
		c1.1-0.9,1.7-2.2,1.8-3.9c0.1-0.6,0.1-1.4,0.1-2.2c0-0.8,0-1.6-0.1-2.2c-0.1-1.6-0.7-2.9-1.8-3.9c-1.1-0.9-2.5-1.4-4.2-1.4
		c-1.7,0-3.1,0.5-4.2,1.4c-1.1,0.9-1.7,2.2-1.8,3.9c-0.1,0.6-0.1,1.4-0.1,2.2C217.4,102.4,217.4,103.2,217.5,103.8z"/>
	<path class="st2" d="M246.9,86.5c0-0.5,0.2-0.9,0.5-1.2c0.3-0.3,0.8-0.5,1.2-0.5h8.2c0.5,0,0.9,0.2,1.2,0.5
		c0.3,0.3,0.5,0.8,0.5,1.2v16.4c0,1.9,0.4,3.3,1.2,4.5c0.8,1.1,2.2,1.7,4.1,1.7c1.9,0,3.2-0.6,4-1.7c0.8-1.1,1.2-2.6,1.2-4.5V86.5
		c0-0.5,0.2-0.9,0.5-1.2c0.3-0.3,0.8-0.5,1.2-0.5h8.2c0.5,0,0.9,0.2,1.2,0.5c0.3,0.3,0.5,0.8,0.5,1.2v30.2c0,0.5-0.2,0.9-0.5,1.2
		c-0.3,0.3-0.8,0.5-1.2,0.5h-7.5c-0.5,0-0.9-0.2-1.2-0.5c-0.3-0.3-0.5-0.8-0.5-1.2v-1.5c-0.3,0.5-0.8,0.9-1.3,1.4
		c-0.5,0.5-1.1,0.9-1.8,1.2c-0.7,0.4-1.6,0.7-2.6,0.9c-1,0.2-2.1,0.4-3.5,0.4c-4.2,0-7.5-1.2-10-3.6c-2.5-2.4-3.7-6.1-3.7-11.2V86.5
		z"/>
	<path class="st2" d="M311.8,84.8c0.5,0,0.9,0.2,1.2,0.5c0.3,0.3,0.5,0.8,0.5,1.2v6.5c0,0.5-0.2,0.9-0.5,1.2
		c-0.3,0.3-0.8,0.5-1.2,0.5h-5.9c-4,0-6,2-6,6v15.9c0,0.5-0.2,0.9-0.5,1.2c-0.3,0.3-0.8,0.5-1.2,0.5H290c-0.5,0-0.9-0.2-1.2-0.5
		c-0.3-0.3-0.5-0.8-0.5-1.2V86.5c0-0.5,0.2-0.9,0.5-1.2c0.3-0.3,0.8-0.5,1.2-0.5h7.5c0.5,0,0.9,0.2,1.2,0.5c0.3,0.3,0.5,0.8,0.5,1.2
		V88c1-0.9,2.2-1.7,3.6-2.3c1.4-0.6,3.1-0.9,5-0.9H311.8z"/>
	<path class="st2" d="M183.3,179c-1.7,0-2.8-0.9-3.4-2.6l-13.2-40.5c-0.1-0.3-0.1-0.5-0.2-0.6c0-0.1,0-0.2,0-0.3
		c0-0.4,0.1-0.7,0.4-1c0.3-0.3,0.6-0.4,1-0.4h8.2c0.9,0,1.5,0.2,1.8,0.5c0.4,0.4,0.6,0.7,0.7,1.1l9,28.5l9-28.5
		c0.1-0.3,0.3-0.7,0.7-1.1c0.4-0.4,1-0.5,1.8-0.5h8.2c0.4,0,0.7,0.1,1,0.4c0.3,0.3,0.4,0.6,0.4,1c0,0.1,0,0.2,0,0.3
		c0,0.1-0.1,0.3-0.2,0.6l-13.2,40.5c-0.6,1.7-1.7,2.6-3.4,2.6H183.3z"/>
	<path class="st2" d="M243.7,159.7c0,0.6,0.1,1.5,0.1,2.5s0,1.8-0.1,2.5c-0.1,2.1-0.6,4-1.4,5.8c-0.9,1.8-2.1,3.4-3.6,4.8
		c-1.5,1.4-3.3,2.4-5.5,3.2c-2.1,0.8-4.5,1.2-7.2,1.2s-5-0.4-7.2-1.2c-2.1-0.8-4-1.8-5.5-3.2c-1.5-1.4-2.7-2.9-3.6-4.8
		c-0.9-1.8-1.3-3.8-1.4-5.8c0-0.6-0.1-1.5-0.1-2.5s0-1.8,0.1-2.5c0-2.1,0.5-4,1.4-5.8c0.9-1.8,2.1-3.4,3.6-4.8
		c1.5-1.4,3.4-2.4,5.5-3.2c2.1-0.8,4.5-1.2,7.2-1.2s5,0.4,7.2,1.2c2.1,0.8,4,1.9,5.5,3.2c1.5,1.4,2.7,2.9,3.6,4.8
		S243.6,157.6,243.7,159.7z M220.1,164.3c0.1,1.6,0.7,2.9,1.8,3.9s2.5,1.4,4.2,1.4c1.7,0,3.1-0.5,4.2-1.4c1.1-0.9,1.7-2.2,1.8-3.9
		c0.1-0.6,0.1-1.4,0.1-2.2c0-0.8,0-1.6-0.1-2.2c-0.1-1.6-0.7-2.9-1.8-3.9c-1.1-0.9-2.5-1.4-4.2-1.4c-1.7,0-3.1,0.5-4.2,1.4
		c-1.1,0.9-1.7,2.2-1.8,3.9c-0.1,0.6-0.1,1.4-0.1,2.2C220,162.9,220,163.7,220.1,164.3z"/>
	<path class="st2" d="M265,165.8c0,1,0.2,1.8,0.6,2.3c0.4,0.5,1.1,0.8,2.1,0.8h5.2c0.5,0,0.9,0.2,1.2,0.5c0.3,0.3,0.5,0.8,0.5,1.2
		v6.5c0,0.5-0.2,0.9-0.5,1.2s-0.8,0.5-1.2,0.5h-6.2c-2,0-3.9-0.3-5.5-0.9s-3.1-1.4-4.2-2.5c-1.2-1.1-2.1-2.4-2.7-4
		c-0.6-1.6-1-3.4-1-5.3v-10.9h-4.8c-0.5,0-0.9-0.2-1.2-0.5c-0.3-0.3-0.5-0.8-0.5-1.2V147c0-0.5,0.2-0.9,0.5-1.2
		c0.3-0.3,0.8-0.5,1.2-0.5h4.8v-10.6c0-0.5,0.2-0.9,0.5-1.2c0.3-0.3,0.8-0.5,1.2-0.5h8.2c0.5,0,0.9,0.2,1.2,0.5
		c0.3,0.3,0.5,0.8,0.5,1.2v10.6h7.3c0.5,0,0.9,0.2,1.2,0.5c0.3,0.3,0.5,0.8,0.5,1.2v6.5c0,0.5-0.2,0.9-0.5,1.2
		c-0.3,0.3-0.8,0.5-1.2,0.5H265V165.8z"/>
	<path class="st2" d="M290.3,165.8c0,1,0.2,1.8,0.6,2.5c0.4,0.6,0.8,1.2,1.4,1.6c0.6,0.4,1.2,0.7,1.9,0.8c0.7,0.2,1.4,0.2,2,0.2
		c1.3,0,2.3-0.1,3.1-0.4c0.8-0.3,1.4-0.6,1.9-1.1c0.5-0.4,0.8-0.6,1-0.7c0.2-0.1,0.6-0.2,1.1-0.2h8.4c0.9,0,1.4,0.5,1.4,1.4
		c0,0.5-0.3,1.3-1,2.4c-0.6,1.1-1.7,2.1-3,3.2c-1.4,1.1-3.1,2.1-5.3,2.9c-2.2,0.8-4.7,1.2-7.7,1.2c-2.8,0-5.3-0.4-7.5-1.2
		c-2.2-0.8-4-2-5.5-3.5c-1.5-1.5-2.6-3.3-3.4-5.5c-0.8-2.2-1.1-4.6-1.1-7.3c0-2.5,0.4-4.8,1.1-7c0.8-2.1,1.9-4,3.4-5.5
		c1.5-1.6,3.3-2.8,5.5-3.7c2.2-0.9,4.7-1.3,7.5-1.3c3.2,0,5.8,0.5,8.1,1.6c2.2,1.1,4,2.4,5.4,4.1c1.4,1.7,2.4,3.6,3,5.7
		c0.6,2.1,0.9,4.2,0.9,6.3v1.8c0,0.5-0.2,0.9-0.5,1.2c-0.3,0.3-0.8,0.5-1.2,0.5H290.3z M296.1,153.4c-1.8,0-3.2,0.5-4.1,1.6
		c-1,1.1-1.5,2.3-1.7,3.6H302c-0.2-1.3-0.7-2.5-1.7-3.6C299.3,153.9,298,153.4,296.1,153.4z"/>
	<path class="st2" d="M206.8,194.1c0.5,0,0.9,0.2,1.2,0.5c0.3,0.3,0.5,0.8,0.5,1.2v25.8c0,3-0.5,5.6-1.4,7.9c-1,2.3-2.3,4.2-4,5.8
		c-1.7,1.6-3.8,2.7-6.3,3.5c-2.4,0.8-5.1,1.2-8,1.2c-2.9,0-5.6-0.4-8-1.2s-4.5-2-6.2-3.5c-1.7-1.6-3.1-3.5-4-5.8
		c-1-2.3-1.4-4.9-1.4-7.9v-25.8c0-0.5,0.2-0.9,0.5-1.2c0.3-0.3,0.8-0.5,1.2-0.5h8.5c0.5,0,0.9,0.2,1.2,0.5s0.5,0.8,0.5,1.2v25.6
		c0,2.6,0.6,4.6,1.9,6.1c1.3,1.5,3.2,2.2,5.8,2.2c2.6,0,4.5-0.7,5.8-2.2c1.3-1.5,1.9-3.5,1.9-6.1v-25.6c0-0.5,0.2-0.9,0.5-1.2
		s0.8-0.5,1.2-0.5H206.8z"/>
	<path class="st2" d="M236.3,240.1c-1.3,0-2.4-0.1-3.3-0.4c-1-0.3-1.8-0.6-2.5-1c-0.7-0.4-1.3-0.8-1.7-1.3s-0.9-0.9-1.2-1.3V250
		c0,0.5-0.2,0.9-0.5,1.2c-0.3,0.3-0.8,0.5-1.2,0.5h-8.2c-0.5,0-0.9-0.2-1.2-0.5s-0.5-0.8-0.5-1.2v-42.5c0-0.5,0.2-0.9,0.5-1.2
		s0.8-0.5,1.2-0.5h7.8c0.5,0,0.9,0.2,1.2,0.5s0.5,0.8,0.5,1.2v1.5c0.4-0.4,0.8-0.9,1.3-1.4c0.5-0.5,1-0.9,1.7-1.3
		c0.7-0.4,1.5-0.7,2.5-0.9s2.2-0.4,3.6-0.4c1.9,0,3.8,0.3,5.5,0.9c1.7,0.6,3.2,1.5,4.5,2.7c1.3,1.2,2.3,2.8,3.1,4.6s1.2,4.1,1.3,6.6
		c0,0.6,0.1,1.5,0.1,2.6c0,1.1,0,2-0.1,2.6c-0.1,2.5-0.5,4.8-1.3,6.6s-1.8,3.4-3.1,4.6c-1.3,1.2-2.8,2.1-4.5,2.8
		C240.1,239.8,238.2,240.1,236.3,240.1z M239.2,224.4c0.1-1.2,0.1-2.4,0-3.6c-0.1-1.5-0.6-2.8-1.5-4c-0.9-1.1-2.3-1.7-4.3-1.7
		c-1,0-1.8,0.2-2.5,0.5c-0.7,0.3-1.3,0.7-1.7,1.2c-0.5,0.5-0.8,1-1.1,1.7c-0.3,0.6-0.4,1.2-0.5,1.9c-0.1,0.6-0.1,1.4-0.1,2.3
		c0,0.9,0,1.6,0.1,2.3c0.1,0.6,0.3,1.3,0.5,1.9c0.3,0.6,0.6,1.2,1.1,1.7c0.5,0.5,1,0.9,1.7,1.2c0.7,0.3,1.5,0.5,2.5,0.5
		c2,0,3.5-0.6,4.3-1.7C238.6,227.2,239.1,225.9,239.2,224.4z"/>
</g>
</svg>
