<?xml version="1.0" encoding="utf-8"?>
<!-- Generator: Adobe Illustrator 21.0.0, SVG Export Plug-In . SVG Version: 6.00 Build 0)  -->
<svg version="1.1" id="Layer_1" xmlns="http://www.w3.org/2000/svg" xmlns:xlink="http://www.w3.org/1999/xlink" x="0px" y="0px"
	 viewBox="0 0 411 114" style="enable-background:new 0 0 411 114;" xml:space="preserve">
<style type="text/css">
	.st0{fill-rule:evenodd;clip-rule:evenodd;fill:#EC1C24;}
	.st1{fill:#ED1C24;}
	.st2{fill:#414042;}
</style>
<g>
	<path class="st0" d="M66.6,41.3c-0.1-0.2-0.3-0.2-0.4,0c-0.3,0.8-0.7,1.8-1.1,2.6c-0.2,0.4-0.3,0.7-0.4,1c-0.3,0.4-0.7,0.6-1.2,0.4
		c-0.4-0.2-0.8-0.6-1.2-0.8c-0.2-0.1-0.4,0-0.3,0.2c0.3,1.7,0.7,3.7,1.1,5.5c0.1,0.5,0.2,1.1-0.1,1.2c-0.4,0.1-0.8-0.4-1-0.6
		c-0.6-0.8-1.3-1.6-1.9-2.3c-0.1-0.1-0.3-0.1-0.4,0.1c-0.1,0.3-0.1,0.5-0.3,0.8c-0.1,0.3-0.4,0.6-0.7,0.6c-0.4,0.1-1.1-0.1-1.7-0.2
		c-0.4-0.1-0.9-0.2-1.2-0.2c-0.2,0-0.3,0.1-0.2,0.3c0.2,0.7,0.5,1.6,0.7,2.4c0.1,0.3,0.3,0.7,0.2,0.9c-0.1,0.6-0.7,0.7-1.3,0.9
		C55,54,55,54.3,55.1,54.4c1.4,1.1,2.9,2.2,4.3,3.3c0.5,0.4,1.1,0.7,1.4,1.2c0,0,0,0.1,0,0.1c0.1,0.9-0.3,1.3-0.5,1.9
		c-0.1,0.2,0.1,0.3,0.2,0.3c1.3-0.3,2.7-0.5,4-0.8c0.4-0.1,0.9-0.2,1.3,0c0.1,0,0.1,0.1,0.1,0.2c-0.1,1.9-0.2,4-0.2,5.8
		c0,0.1,0.1,0.2,0.2,0.2h0.9c0.1,0,0.2-0.1,0.2-0.2c-0.1-2-0.2-3.7-0.2-5.7c0-0.1,0-0.1,0.1-0.2c0.3-0.3,0.9-0.1,1.3,0
		c1.3,0.2,2.7,0.5,4,0.8c0.2,0,0.3-0.1,0.3-0.3c-0.2-0.6-0.6-1-0.5-1.9c0,0,0-0.1,0-0.1c0.3-0.5,0.9-0.9,1.4-1.2
		c1.4-1.1,2.9-2.2,4.4-3.2c0.1-0.1,0.1-0.3-0.1-0.4c-0.3-0.1-0.7-0.2-1-0.3c-0.1-0.1-0.3-0.3-0.4-0.5c-0.1-0.3,0.1-0.6,0.2-1
		c0.2-0.7,0.5-1.7,0.7-2.5c0-0.2-0.1-0.3-0.2-0.3c-0.4,0.1-0.8,0.2-1.2,0.2c-0.7,0.1-1.4,0.3-1.9,0.1c-0.5-0.2-0.6-0.8-0.7-1.4
		c-0.1-0.2-0.3-0.2-0.4-0.1c0,0.1-0.1,0.1-0.1,0.2c-0.6,0.7-1.2,1.3-1.8,2.1c-0.3,0.3-0.7,0.9-1.1,0.5c-0.1,0-0.1-0.1-0.1-0.2
		c0.3-2.2,0.8-4.2,1.2-6.3c0-0.2-0.2-0.3-0.3-0.2c0,0,0,0,0,0c-0.3,0.2-0.9,0.7-1.3,0.8c-0.6,0.2-0.8-0.1-1.1-0.4c0,0,0,0,0-0.1
		C67.6,43.6,67.1,42.4,66.6,41.3z"/>
	
		<rect x="32.8" y="35.7" transform="matrix(-1 -4.466484e-11 4.466484e-11 -1 80.8465 106.7218)" class="st0" width="15.2" height="35.4"/>
	<path class="st1" d="M10.4,53.8c0,25.6,25.1,46.5,56,46.5h51.1c0.9,0,1.4-1,0.8-1.7l-10-12.6c-0.3-0.4-0.3-1.1,0.1-1.4
		c8.7-8.2,14-18.9,14-30.7c0-25.6-25.1-46.5-56-46.5S10.4,28.2,10.4,53.8z M17.8,53.8c0-21.5,21.8-39.1,48.6-39.1
		s48.6,17.5,48.6,39.1S93.3,92.9,66.4,92.9S17.8,75.4,17.8,53.8z"/>
	
		<rect x="85.8" y="35.7" transform="matrix(-1 -4.490331e-11 4.490331e-11 -1 186.8035 106.7218)" class="st0" width="15.2" height="35.4"/>
</g>
<g>
	<path class="st2" d="M164.3,97.7c-0.3,0-0.5-0.1-0.6-0.4l-3.7-7.2v10.4c0,0.3-0.1,0.4-0.4,0.4h-0.3c-0.3,0-0.4-0.1-0.4-0.4V87.9
		c0-0.3,0.1-0.4,0.4-0.4h0.5c0.1,0,0.2,0,0.3,0.1c0.1,0.1,0.1,0.1,0.1,0.2l4.4,8.5l4.4-8.5c0,0,0.1-0.1,0.1-0.2
		c0.1-0.1,0.2-0.1,0.3-0.1h0.5c0.3,0,0.4,0.1,0.4,0.4v12.6c0,0.3-0.1,0.4-0.4,0.4h-0.3c-0.3,0-0.4-0.1-0.4-0.4V90.1l-3.7,7.2
		c-0.1,0.3-0.3,0.4-0.6,0.4H164.3z"/>
	<path class="st2" d="M184.8,97.6H178l-1.2,3.1c0,0.1-0.1,0.1-0.1,0.2c-0.1,0.1-0.2,0.1-0.3,0.1H176c-0.1,0-0.2,0-0.3-0.1
		s-0.1-0.2-0.1-0.3c0-0.1,0-0.1,0-0.2l4.9-12.5c0.1-0.1,0.1-0.2,0.2-0.3c0.1-0.1,0.2-0.1,0.4-0.1h0.7c0.2,0,0.3,0,0.4,0.1
		c0.1,0.1,0.2,0.2,0.2,0.3l4.9,12.5c0,0.1,0,0.1,0,0.2c0,0.1,0,0.2-0.1,0.3c-0.1,0.1-0.2,0.1-0.3,0.1h-0.4c-0.1,0-0.2,0-0.3-0.1
		c-0.1-0.1-0.1-0.1-0.1-0.2L184.8,97.6z M178.5,96.5h5.9l-2.9-7.6L178.5,96.5z"/>
	<path class="st2" d="M193.7,93l5.8-5.2c0.1,0,0.1-0.1,0.3-0.2c0.1-0.1,0.3-0.1,0.5-0.1h0.3c0.1,0,0.2,0,0.3,0.1
		c0.1,0.1,0.1,0.2,0.1,0.3s0,0.2-0.1,0.3l-6.5,5.8l6.9,6.4c0.1,0.1,0.1,0.2,0.1,0.3s0,0.2-0.1,0.3c-0.1,0.1-0.2,0.1-0.3,0.1h-0.3
		c-0.2,0-0.4,0-0.5-0.1c-0.1-0.1-0.2-0.1-0.3-0.2l-6.2-5.7v5.6c0,0.3-0.1,0.4-0.4,0.4H193c-0.3,0-0.4-0.1-0.4-0.4V87.9
		c0-0.3,0.1-0.4,0.4-0.4h0.3c0.3,0,0.4,0.1,0.4,0.4V93z"/>
	<path class="st2" d="M214.8,99.8c0.3,0,0.4,0.1,0.4,0.4v0.3c0,0.3-0.1,0.4-0.4,0.4h-7.7c-0.3,0-0.4-0.1-0.4-0.4V87.9
		c0-0.3,0.1-0.4,0.4-0.4h7.5c0.3,0,0.4,0.1,0.4,0.4v0.3c0,0.3-0.1,0.4-0.4,0.4h-6.7v4.9h6.3c0.3,0,0.4,0.1,0.4,0.4v0.3
		c0,0.3-0.1,0.4-0.4,0.4h-6.3v5.1H214.8z"/>
	<path class="st2" d="M232.9,94.6l4.2-6.8c0.1-0.2,0.3-0.3,0.4-0.3h0.4c0.1,0,0.2,0,0.3,0.1c0.1,0.1,0.1,0.2,0.1,0.3
		c0,0.1,0,0.1-0.1,0.3l-4.7,7.7v4.7c0,0.3-0.1,0.4-0.4,0.4h-0.4c-0.3,0-0.4-0.1-0.4-0.4v-4.7l-4.7-7.7c-0.1-0.1-0.1-0.2-0.1-0.3
		c0-0.1,0-0.2,0.1-0.3c0.1-0.1,0.2-0.1,0.3-0.1h0.4c0.2,0,0.3,0.1,0.4,0.3L232.9,94.6z"/>
	<path class="st2" d="M247.8,87.3c0.7,0,1.4,0.1,2,0.3c0.6,0.2,1.1,0.5,1.6,1s0.8,1,1,1.7c0.3,0.7,0.4,1.4,0.4,2.3
		c0,0.6,0,1.1,0,1.6s0,1,0,1.6c-0.1,1.8-0.5,3.2-1.4,4s-2.1,1.3-3.7,1.3c-1.6,0-2.8-0.4-3.7-1.3c-0.9-0.9-1.3-2.2-1.4-4
		c0-0.6,0-1.1,0-1.6s0-1,0-1.6c0-0.9,0.2-1.7,0.4-2.3c0.3-0.7,0.6-1.2,1-1.7s1-0.8,1.6-1C246.4,87.4,247.1,87.3,247.8,87.3z
		 M247.8,88.5c-0.5,0-1,0.1-1.5,0.2s-0.9,0.4-1.2,0.8c-0.3,0.3-0.6,0.8-0.8,1.3c-0.2,0.5-0.3,1.2-0.3,1.9c0,0.3,0,0.6,0,0.8
		c0,0.2,0,0.5,0,0.7c0,0.2,0,0.5,0,0.7s0,0.5,0,0.8c0,0.8,0.1,1.4,0.3,1.9c0.2,0.5,0.5,1,0.8,1.3c0.3,0.3,0.7,0.6,1.2,0.8
		s1,0.2,1.5,0.2c0.6,0,1.1-0.1,1.5-0.2s0.9-0.4,1.2-0.8c0.3-0.3,0.6-0.8,0.8-1.3c0.2-0.5,0.3-1.2,0.3-1.9c0-0.3,0-0.5,0-0.8
		s0-0.5,0-0.7c0-0.2,0-0.5,0-0.7c0-0.2,0-0.5,0-0.8c0-0.7-0.1-1.4-0.3-1.9c-0.2-0.5-0.5-1-0.8-1.3c-0.3-0.3-0.8-0.6-1.2-0.8
		S248.4,88.5,247.8,88.5z"/>
	<path class="st2" d="M267.7,87.9c0-0.3,0.1-0.4,0.4-0.4h0.3c0.3,0,0.4,0.1,0.4,0.4v7.8c0,1.9-0.4,3.2-1.3,4.1
		c-0.9,0.9-2.1,1.3-3.7,1.3c-0.8,0-1.5-0.1-2.1-0.3c-0.6-0.2-1.1-0.5-1.6-1c-0.4-0.4-0.7-1-1-1.7c-0.2-0.7-0.3-1.5-0.3-2.4v-7.8
		c0-0.3,0.1-0.4,0.4-0.4h0.3c0.3,0,0.4,0.1,0.4,0.4v7.9c0,1.5,0.3,2.5,1,3.2c0.7,0.7,1.6,1,2.7,1s2.1-0.3,2.7-1c0.7-0.7,1-1.7,1-3.2
		V87.9z"/>
	<path class="st2" d="M280.4,87.5c1.3,0,2.4,0.3,3.2,1s1.2,1.6,1.2,2.9c0,1-0.3,1.9-0.8,2.5s-1.2,1-2.1,1.2l3.1,5.3
		c0,0.1,0.1,0.1,0.1,0.2c0,0.1,0,0.2-0.1,0.3s-0.2,0.1-0.3,0.1h-0.2c-0.2,0-0.4-0.1-0.5-0.2c-0.1-0.1-0.2-0.2-0.3-0.4l-3.1-5.2h-4
		v5.3c0,0.3-0.1,0.4-0.4,0.4h-0.3c-0.3,0-0.4-0.1-0.4-0.4V87.9c0-0.3,0.1-0.4,0.4-0.4H280.4z M276.7,94.1h3.6c2.2,0,3.3-0.9,3.3-2.7
		s-1.1-2.7-3.3-2.7h-3.6V94.1z"/>
	<path class="st2" d="M306.9,87.8c0-0.1,0.1-0.1,0.1-0.2c0.1-0.1,0.2-0.1,0.3-0.1h0.4c0.1,0,0.2,0,0.3,0.1s0.1,0.2,0.1,0.3
		c0,0.1,0,0.1,0,0.2l-4.5,12.4c-0.1,0.3-0.3,0.5-0.7,0.5h-0.5c-0.3,0-0.5-0.2-0.7-0.5l-4.5-12.4c0-0.1,0-0.1,0-0.2
		c0-0.1,0-0.2,0.1-0.3c0.1-0.1,0.2-0.1,0.3-0.1h0.4c0.1,0,0.2,0,0.3,0.1c0.1,0.1,0.1,0.1,0.1,0.2l4.2,11.8L306.9,87.8z"/>
	<path class="st2" d="M317.1,87.3c0.7,0,1.4,0.1,2,0.3c0.6,0.2,1.1,0.5,1.6,1c0.4,0.4,0.8,1,1,1.7c0.3,0.7,0.4,1.4,0.4,2.3
		c0,0.6,0,1.1,0,1.6s0,1,0,1.6c-0.1,1.8-0.5,3.2-1.4,4c-0.9,0.9-2.1,1.3-3.7,1.3c-1.6,0-2.8-0.4-3.7-1.3c-0.9-0.9-1.3-2.2-1.4-4
		c0-0.6,0-1.1,0-1.6s0-1,0-1.6c0-0.9,0.2-1.7,0.4-2.3c0.3-0.7,0.6-1.2,1-1.7c0.4-0.4,1-0.8,1.6-1S316.3,87.3,317.1,87.3z
		 M317.1,88.5c-0.5,0-1,0.1-1.5,0.2c-0.5,0.2-0.9,0.4-1.2,0.8c-0.3,0.3-0.6,0.8-0.8,1.3c-0.2,0.5-0.3,1.2-0.3,1.9c0,0.3,0,0.6,0,0.8
		c0,0.2,0,0.5,0,0.7c0,0.2,0,0.5,0,0.7c0,0.3,0,0.5,0,0.8c0,0.8,0.1,1.4,0.3,1.9s0.5,1,0.8,1.3c0.3,0.3,0.7,0.6,1.2,0.8
		s1,0.2,1.5,0.2s1.1-0.1,1.5-0.2c0.5-0.2,0.9-0.4,1.2-0.8c0.3-0.3,0.6-0.8,0.8-1.3s0.3-1.2,0.3-1.9c0-0.3,0-0.5,0-0.8s0-0.5,0-0.7
		c0-0.2,0-0.5,0-0.7c0-0.2,0-0.5,0-0.8c0-0.7-0.1-1.4-0.3-1.9c-0.2-0.5-0.5-1-0.8-1.3c-0.3-0.3-0.8-0.6-1.2-0.8
		C318.1,88.5,317.6,88.5,317.1,88.5z"/>
	<path class="st2" d="M335.1,87.5c0.3,0,0.4,0.1,0.4,0.4v0.3c0,0.3-0.1,0.4-0.4,0.4h-3.8v11.9c0,0.3-0.1,0.4-0.4,0.4h-0.3
		c-0.3,0-0.4-0.1-0.4-0.4V88.7h-3.8c-0.3,0-0.4-0.1-0.4-0.4v-0.3c0-0.3,0.1-0.4,0.4-0.4H335.1z"/>
	<path class="st2" d="M348.2,99.8c0.3,0,0.4,0.1,0.4,0.4v0.3c0,0.3-0.1,0.4-0.4,0.4h-7.7c-0.3,0-0.4-0.1-0.4-0.4V87.9
		c0-0.3,0.1-0.4,0.4-0.4h7.5c0.3,0,0.4,0.1,0.4,0.4v0.3c0,0.3-0.1,0.4-0.4,0.4h-6.7v4.9h6.3c0.3,0,0.4,0.1,0.4,0.4v0.3
		c0,0.3-0.1,0.4-0.4,0.4h-6.3v5.1H348.2z"/>
	<path class="st2" d="M369.6,87.9c0-0.3,0.1-0.4,0.4-0.4h0.3c0.3,0,0.4,0.1,0.4,0.4v7.8c0,1.9-0.4,3.2-1.3,4.1
		c-0.9,0.9-2.1,1.3-3.7,1.3c-0.8,0-1.5-0.1-2.1-0.3s-1.1-0.5-1.6-1c-0.4-0.4-0.7-1-1-1.7c-0.2-0.7-0.3-1.5-0.3-2.4v-7.8
		c0-0.3,0.1-0.4,0.4-0.4h0.3c0.3,0,0.4,0.1,0.4,0.4v7.9c0,1.5,0.3,2.5,1,3.2c0.7,0.7,1.6,1,2.7,1s2.1-0.3,2.7-1c0.7-0.7,1-1.7,1-3.2
		V87.9z"/>
	<path class="st2" d="M382.7,87.5c1.3,0,2.4,0.3,3.2,1c0.8,0.7,1.2,1.7,1.2,3c0,1.3-0.4,2.3-1.2,3c-0.8,0.7-1.9,1-3.2,1h-3.9v5.1
		c0,0.3-0.1,0.4-0.4,0.4H378c-0.3,0-0.4-0.1-0.4-0.4V87.9c0-0.3,0.1-0.4,0.4-0.4H382.7z M378.8,94.3h3.8c1.1,0,2-0.2,2.5-0.7
		c0.5-0.5,0.8-1.2,0.8-2.1c0-0.9-0.3-1.6-0.8-2.1c-0.5-0.5-1.4-0.7-2.5-0.7h-3.8V94.3z"/>
</g>
<g>
	<path class="st2" d="M182.5,58.2c-0.5-0.5-0.8-0.9-1.1-1.4l-7.7-13.6v27.3c0,0.6-0.2,1.1-0.7,1.6c-0.4,0.4-1,0.7-1.6,0.7h-10.8
		c-0.6,0-1.1-0.2-1.6-0.7c-0.4-0.4-0.7-1-0.7-1.6V17.3c0-0.6,0.2-1.1,0.7-1.6c0.4-0.4,1-0.7,1.6-0.7h9.6c1.1,0,1.9,0.3,2.5,0.9
		c0.5,0.6,0.9,1,1.1,1.3l13.3,22.8l13.3-22.8c0.2-0.3,0.5-0.7,1.1-1.3c0.5-0.6,1.4-0.9,2.5-0.9h9.6c0.6,0,1.1,0.2,1.6,0.7
		c0.4,0.4,0.7,1,0.7,1.6v53.2c0,0.6-0.2,1.1-0.7,1.6c-0.4,0.4-1,0.7-1.6,0.7h-10.8c-0.6,0-1.1-0.2-1.6-0.7c-0.4-0.4-0.7-1-0.7-1.6
		V43.2l-7.7,13.6c-0.3,0.4-0.6,0.9-1.1,1.4c-0.5,0.5-1.1,0.7-1.9,0.7h-5.3C183.6,58.9,182.9,58.6,182.5,58.2z"/>
	<path class="st2" d="M257.4,70.5c0,0.6-0.2,1.1-0.7,1.6c-0.4,0.4-1,0.7-1.6,0.7h-10.8c-0.6,0-1.1-0.2-1.6-0.7
		c-0.4-0.4-0.7-1-0.7-1.6V52.9l-19-35c-0.2-0.4-0.3-0.7-0.3-1.1c0-0.5,0.2-0.9,0.5-1.3c0.4-0.4,0.8-0.5,1.3-0.5h11.3
		c1.1,0,1.9,0.3,2.5,0.8c0.5,0.5,0.9,1,1,1.2l10.4,20.3l10.5-20.3c0.1-0.3,0.4-0.7,1-1.2c0.5-0.5,1.4-0.8,2.5-0.8H275
		c0.5,0,0.9,0.2,1.3,0.5c0.4,0.4,0.5,0.8,0.5,1.3c0,0.3-0.1,0.7-0.3,1.1l-19,35V70.5z"/>
	<path class="st2" d="M301.3,72.7c-2.1,0-3.6-1.1-4.4-3.3l-16.8-51.5c-0.1-0.4-0.2-0.6-0.2-0.7c0-0.1,0-0.2,0-0.3
		c0-0.5,0.2-0.9,0.5-1.3c0.4-0.4,0.8-0.5,1.3-0.5h10.4c1.1,0,1.9,0.2,2.3,0.7c0.5,0.5,0.8,0.9,0.9,1.4l11.5,36.2l11.5-36.2
		c0.1-0.4,0.4-0.9,0.9-1.4c0.5-0.5,1.2-0.7,2.3-0.7h10.4c0.5,0,0.9,0.2,1.3,0.5c0.4,0.4,0.5,0.8,0.5,1.3c0,0.1,0,0.2,0,0.3
		c0,0.1-0.1,0.4-0.2,0.7l-16.8,51.5c-0.8,2.2-2.2,3.3-4.4,3.3H301.3z"/>
	<path class="st2" d="M388.5,15c0.6,0,1.1,0.2,1.6,0.7c0.4,0.4,0.7,1,0.7,1.6v32.9c0,3.8-0.6,7.1-1.8,10c-1.2,2.9-2.9,5.4-5.1,7.3
		c-2.2,2-4.9,3.5-7.9,4.5c-3.1,1-6.5,1.5-10.1,1.5c-3.7,0-7.1-0.5-10.2-1.5c-3.1-1-5.7-2.5-7.9-4.5c-2.2-2-3.9-4.4-5.1-7.3
		c-1.2-2.9-1.8-6.3-1.8-10V17.3c0-0.6,0.2-1.1,0.7-1.6c0.4-0.4,1-0.7,1.6-0.7h10.8c0.6,0,1.1,0.2,1.6,0.7c0.4,0.4,0.7,1,0.7,1.6
		v32.5c0,3.3,0.8,5.9,2.4,7.7c1.6,1.9,4.1,2.8,7.4,2.8c3.3,0,5.8-0.9,7.4-2.8c1.6-1.9,2.4-4.4,2.4-7.7V17.3c0-0.6,0.2-1.1,0.7-1.6
		c0.4-0.4,1-0.7,1.6-0.7H388.5z"/>
</g>
</svg>
