<?xml version="1.0" encoding="utf-8"?>
<!-- Generator: Adobe Illustrator 21.0.0, SVG Export Plug-In . SVG Version: 6.00 Build 0)  -->
<svg version="1.1" id="Layer_1" xmlns="http://www.w3.org/2000/svg" xmlns:xlink="http://www.w3.org/1999/xlink" x="0px" y="0px"
	 viewBox="0 0 445 106" style="enable-background:new 0 0 445 106;" xml:space="preserve">
<style type="text/css">
	.st0{fill-rule:evenodd;clip-rule:evenodd;fill:#EC1C24;}
	.st1{fill:#ED1C24;}
	.st2{fill:#414042;}
</style>
<g>
	<path class="st0" d="M60.9,40.1c-0.1-0.2-0.3-0.2-0.4,0c-0.3,0.7-0.7,1.7-1,2.4c-0.1,0.3-0.2,0.7-0.4,0.9c-0.2,0.4-0.6,0.6-1.1,0.4
		c-0.4-0.2-0.8-0.5-1.2-0.8c-0.1-0.1-0.3,0-0.3,0.2c0.3,1.6,0.7,3.5,1,5.1c0.1,0.4,0.2,1-0.1,1.1c-0.4,0.1-0.8-0.3-0.9-0.6
		c-0.6-0.7-1.2-1.5-1.8-2.2c-0.1-0.1-0.3-0.1-0.3,0.1c-0.1,0.2-0.1,0.5-0.2,0.7c-0.1,0.2-0.3,0.6-0.6,0.6c-0.4,0.1-1-0.1-1.6-0.2
		c-0.4-0.1-0.8-0.2-1.1-0.2c-0.1,0-0.3,0.1-0.2,0.3c0.2,0.7,0.5,1.5,0.7,2.3c0.1,0.3,0.3,0.6,0.2,0.9c-0.1,0.6-0.7,0.7-1.2,0.9
		c-0.2,0.1-0.2,0.3-0.1,0.3c1.3,1,2.7,2,4,3.1c0.4,0.3,1,0.6,1.3,1.1c0,0,0,0.1,0,0.1c0.1,0.8-0.3,1.2-0.5,1.8
		c-0.1,0.1,0.1,0.3,0.2,0.3c1.2-0.3,2.5-0.5,3.8-0.7c0.4-0.1,0.8-0.2,1.2,0c0.1,0,0.1,0.1,0.1,0.2c-0.1,1.8-0.2,3.8-0.2,5.4
		c0,0.1,0.1,0.2,0.2,0.2h0.8c0.1,0,0.2-0.1,0.2-0.2c-0.1-1.9-0.1-3.5-0.2-5.4c0-0.1,0-0.1,0.1-0.2c0.3-0.3,0.8-0.1,1.2,0
		c1.2,0.2,2.5,0.5,3.7,0.7c0.2,0,0.3-0.1,0.2-0.3c-0.2-0.5-0.6-0.9-0.5-1.7c0,0,0-0.1,0-0.1c0.3-0.5,0.8-0.8,1.3-1.2
		c1.3-1,2.7-2,4.1-3c0.1-0.1,0.1-0.3,0-0.3c-0.3-0.1-0.7-0.2-0.9-0.3c-0.1-0.1-0.3-0.3-0.3-0.5c-0.1-0.3,0.1-0.6,0.2-0.9
		c0.2-0.7,0.5-1.6,0.7-2.3c0-0.1-0.1-0.3-0.2-0.3c-0.3,0.1-0.7,0.1-1.2,0.2C69,48,68.3,48.2,67.9,48c-0.4-0.2-0.5-0.8-0.7-1.3
		c-0.1-0.2-0.3-0.2-0.4-0.1c0,0.1-0.1,0.1-0.1,0.2c-0.5,0.6-1.1,1.2-1.7,2c-0.3,0.3-0.6,0.9-1.1,0.5c-0.1,0-0.1-0.1-0.1-0.2
		c0.3-2,0.7-3.9,1.1-5.9c0-0.2-0.2-0.3-0.3-0.2c0,0,0,0,0,0c-0.3,0.2-0.8,0.7-1.2,0.8c-0.5,0.2-0.8-0.1-1.1-0.4c0,0,0,0,0-0.1
		C61.9,42.2,61.4,41.2,60.9,40.1z"/>
	
		<rect x="29.4" y="34.9" transform="matrix(-1 -4.477231e-11 4.477231e-11 -1 72.9924 102.7286)" class="st0" width="14.2" height="33"/>
	<path class="st1" d="M8.5,51.8c0,23.9,23.5,43.4,52.3,43.4h47.7c0.8,0,1.3-1,0.8-1.6l-9.3-11.8c-0.3-0.4-0.3-1,0.1-1.3
		c8.1-7.7,13.1-17.7,13.1-28.7c0-23.9-23.5-43.4-52.3-43.4S8.5,27.9,8.5,51.8z M15.4,51.8c0-20.1,20.4-36.5,45.4-36.5
		s45.4,16.4,45.4,36.5S85.8,88.3,60.8,88.3S15.4,71.9,15.4,51.8z"/>
	
		<rect x="78.8" y="34.9" transform="matrix(-1 -4.502810e-11 4.502810e-11 -1 171.9117 102.7286)" class="st0" width="14.2" height="33"/>
</g>
<g>
	<path class="st2" d="M163.2,38.8c-0.3-0.3-0.5-0.6-0.7-0.8l-4.6-8.1v16.3c0,0.4-0.1,0.7-0.4,0.9c-0.3,0.3-0.6,0.4-0.9,0.4H150
		c-0.4,0-0.7-0.1-0.9-0.4c-0.3-0.3-0.4-0.6-0.4-0.9V14.3c0-0.4,0.1-0.7,0.4-0.9c0.3-0.3,0.6-0.4,0.9-0.4h5.7c0.7,0,1.2,0.2,1.5,0.5
		c0.3,0.4,0.5,0.6,0.6,0.8l8,13.7l8-13.7c0.1-0.2,0.3-0.4,0.6-0.8c0.3-0.4,0.8-0.5,1.5-0.5h5.7c0.4,0,0.7,0.1,0.9,0.4
		c0.3,0.3,0.4,0.6,0.4,0.9v31.9c0,0.4-0.1,0.7-0.4,0.9c-0.3,0.3-0.6,0.4-0.9,0.4h-6.5c-0.4,0-0.7-0.1-0.9-0.4
		c-0.3-0.3-0.4-0.6-0.4-0.9V29.9l-4.6,8.1c-0.2,0.3-0.4,0.5-0.7,0.8c-0.3,0.3-0.7,0.4-1.2,0.4h-3.2
		C163.8,39.3,163.4,39.1,163.2,38.8z"/>
	<path class="st2" d="M208.3,13c0.7,0,1.2,0.2,1.5,0.5c0.3,0.4,0.6,0.7,0.7,1.1l10.8,31.1c0.1,0.3,0.2,0.6,0.2,0.7
		c0,0.3-0.1,0.6-0.3,0.8c-0.2,0.2-0.5,0.3-0.8,0.3h-6.2c-0.7,0-1.1-0.1-1.4-0.4c-0.3-0.3-0.5-0.6-0.5-0.8l-1.4-4.1h-13.1l-1.4,4.1
		c-0.1,0.3-0.2,0.5-0.5,0.8c-0.3,0.3-0.7,0.4-1.4,0.4h-6.2c-0.3,0-0.6-0.1-0.8-0.3c-0.2-0.2-0.3-0.5-0.3-0.8c0-0.2,0.1-0.4,0.2-0.7
		L198,14.6c0.1-0.4,0.4-0.7,0.7-1.1c0.3-0.4,0.8-0.5,1.5-0.5H208.3z M200.3,34.6h8l-4-11.8L200.3,34.6z"/>
	<path class="st2" d="M254.7,45.9c0.1,0.1,0.1,0.3,0.1,0.5c0,0.3-0.1,0.6-0.3,0.8c-0.2,0.2-0.5,0.3-0.8,0.3h-7.8
		c-0.5,0-0.8-0.1-1.1-0.3c-0.3-0.2-0.6-0.5-0.9-0.8l-9.3-11.8v11.6c0,0.4-0.1,0.7-0.4,0.9c-0.3,0.3-0.6,0.4-0.9,0.4h-6.5
		c-0.4,0-0.7-0.1-0.9-0.4c-0.3-0.3-0.4-0.6-0.4-0.9V14.3c0-0.4,0.1-0.7,0.4-0.9c0.3-0.3,0.6-0.4,0.9-0.4h6.5c0.4,0,0.7,0.1,0.9,0.4
		c0.3,0.3,0.4,0.6,0.4,0.9v10.4l8.7-10.7c0.2-0.2,0.4-0.4,0.6-0.7c0.3-0.3,0.7-0.4,1.3-0.4h7.7c0.3,0,0.6,0.1,0.8,0.3
		c0.2,0.2,0.3,0.5,0.3,0.8c0,0.2,0,0.4-0.1,0.5l-12.2,14.9L254.7,45.9z"/>
	<path class="st2" d="M283.4,39.7c0.4,0,0.7,0.1,0.9,0.4c0.3,0.3,0.4,0.6,0.4,0.9v5.2c0,0.4-0.1,0.7-0.4,0.9
		c-0.3,0.3-0.6,0.4-0.9,0.4H260c-0.4,0-0.7-0.1-0.9-0.4c-0.3-0.3-0.4-0.6-0.4-0.9V14.3c0-0.4,0.1-0.7,0.4-0.9
		c0.3-0.3,0.6-0.4,0.9-0.4h23c0.4,0,0.7,0.1,0.9,0.4c0.3,0.3,0.4,0.6,0.4,0.9v5.2c0,0.4-0.1,0.7-0.4,0.9c-0.3,0.3-0.6,0.4-0.9,0.4
		h-15.2v5.3h14.1c0.4,0,0.7,0.1,0.9,0.4c0.3,0.3,0.4,0.6,0.4,0.9v5.2c0,0.4-0.1,0.7-0.4,0.9c-0.3,0.3-0.6,0.4-0.9,0.4h-14.1v5.5
		H283.4z"/>
	<path class="st2" d="M317.6,46.2c0,0.4-0.1,0.7-0.4,0.9c-0.3,0.3-0.6,0.4-0.9,0.4h-6.5c-0.4,0-0.7-0.1-0.9-0.4
		c-0.3-0.3-0.4-0.6-0.4-0.9V35.7l-11.4-21c-0.1-0.2-0.2-0.4-0.2-0.6c0-0.3,0.1-0.6,0.3-0.8c0.2-0.2,0.5-0.3,0.8-0.3h6.8
		c0.7,0,1.2,0.2,1.5,0.5c0.3,0.3,0.5,0.6,0.6,0.7l6.2,12.1l6.3-12.1c0.1-0.2,0.3-0.4,0.6-0.7c0.3-0.3,0.8-0.5,1.5-0.5h6.8
		c0.3,0,0.6,0.1,0.8,0.3c0.2,0.2,0.3,0.5,0.3,0.8c0,0.2-0.1,0.4-0.2,0.6l-11.4,21V46.2z"/>
	<path class="st2" d="M330.5,25.9c0.1-1.8,0.5-3.6,1.2-5.2c0.7-1.6,1.7-3,3-4.2c1.3-1.2,2.9-2.2,4.7-2.9c1.9-0.7,4-1.1,6.4-1.1
		c2.4,0,4.5,0.4,6.4,1.1c1.9,0.7,3.5,1.7,4.8,2.9c1.3,1.2,2.3,2.6,3,4.2c0.7,1.6,1.1,3.4,1.2,5.2c0.1,1.4,0.1,2.9,0.1,4.4
		c0,1.5,0,3-0.1,4.3c-0.1,1.8-0.5,3.6-1.2,5.2c-0.7,1.6-1.7,3.1-3,4.3c-1.3,1.2-2.9,2.2-4.8,2.9c-1.9,0.7-4,1-6.4,1
		c-2.4,0-4.6-0.3-6.4-1c-1.9-0.7-3.4-1.6-4.7-2.9c-1.3-1.2-2.3-2.6-3-4.3c-0.7-1.6-1.1-3.4-1.2-5.2c-0.1-1.3-0.1-2.8-0.1-4.3
		C330.4,28.8,330.4,27.3,330.5,25.9z M352.2,34.4c0-0.6,0.1-1.3,0.1-2c0-0.7,0-1.5,0-2.2c0-0.8,0-1.5,0-2.2c0-0.7-0.1-1.3-0.1-1.9
		c-0.1-0.8-0.2-1.6-0.5-2.3c-0.3-0.7-0.7-1.3-1.2-1.8c-0.5-0.5-1.1-0.9-1.9-1.2c-0.8-0.3-1.6-0.4-2.7-0.4c-1,0-1.9,0.1-2.7,0.4
		c-0.8,0.3-1.4,0.7-1.9,1.2c-0.5,0.5-0.9,1.1-1.2,1.8c-0.3,0.7-0.5,1.4-0.5,2.3c-0.1,0.6-0.1,1.2-0.1,1.9c0,0.7,0,1.4,0,2.2
		c0,0.8,0,1.5,0,2.2c0,0.7,0.1,1.4,0.1,2c0.1,1.6,0.7,3,1.7,4.1c1,1.1,2.5,1.6,4.6,1.6c2,0,3.6-0.5,4.5-1.6S352,36.1,352.2,34.4z"/>
	<path class="st2" d="M395.4,13c0.4,0,0.7,0.1,0.9,0.4c0.3,0.3,0.4,0.6,0.4,0.9V34c0,2.3-0.4,4.3-1.1,6c-0.7,1.7-1.8,3.2-3.1,4.4
		s-2.9,2.1-4.8,2.7c-1.8,0.6-3.9,0.9-6.1,0.9c-2.2,0-4.3-0.3-6.1-0.9c-1.8-0.6-3.4-1.5-4.7-2.7c-1.3-1.2-2.3-2.6-3.1-4.4
		c-0.7-1.7-1.1-3.8-1.1-6V14.3c0-0.4,0.1-0.7,0.4-0.9c0.3-0.3,0.6-0.4,0.9-0.4h6.5c0.4,0,0.7,0.1,0.9,0.4c0.3,0.3,0.4,0.6,0.4,0.9
		v19.5c0,2,0.5,3.5,1.5,4.6c1,1.1,2.4,1.7,4.4,1.7c2,0,3.4-0.6,4.4-1.7c1-1.1,1.5-2.7,1.5-4.6V14.3c0-0.4,0.1-0.7,0.4-0.9
		c0.3-0.3,0.6-0.4,0.9-0.4H395.4z"/>
	<path class="st2" d="M418,13c2.2,0,4.1,0.2,5.8,0.7c1.7,0.5,3.2,1.2,4.4,2.1c1.2,0.9,2.1,2.1,2.8,3.5s1,3.1,1,5
		c0,2.5-0.5,4.5-1.5,6.1c-1,1.6-2.5,2.9-4.3,3.7l6.1,11.8c0.1,0.2,0.1,0.4,0.1,0.5c0,0.3-0.1,0.6-0.3,0.8c-0.2,0.2-0.5,0.3-0.8,0.3
		h-6.7c-0.7,0-1.1-0.1-1.4-0.4c-0.3-0.3-0.5-0.6-0.7-0.9L417,35.7h-4.5v10.6c0,0.4-0.1,0.7-0.4,0.9c-0.3,0.3-0.6,0.4-0.9,0.4h-6.5
		c-0.4,0-0.7-0.1-0.9-0.4c-0.3-0.3-0.4-0.6-0.4-0.9V14.3c0-0.4,0.1-0.7,0.4-0.9c0.3-0.3,0.6-0.4,0.9-0.4H418z M412.4,28h5.6
		c1.4,0,2.5-0.3,3.4-0.8c0.9-0.5,1.4-1.5,1.4-2.9s-0.5-2.3-1.4-2.9c-0.9-0.5-2-0.8-3.4-0.8h-5.6V28z"/>
	<path class="st2" d="M159.2,93.7c-1.3,0-2.2-0.7-2.6-2l-10.1-30.9c-0.1-0.2-0.1-0.4-0.1-0.4c0-0.1,0-0.1,0-0.2
		c0-0.3,0.1-0.6,0.3-0.8c0.2-0.2,0.5-0.3,0.8-0.3h6.2c0.7,0,1.1,0.1,1.4,0.4c0.3,0.3,0.5,0.6,0.5,0.8l6.9,21.7l6.9-21.7
		c0.1-0.3,0.2-0.5,0.5-0.8c0.3-0.3,0.7-0.4,1.4-0.4h6.2c0.3,0,0.6,0.1,0.8,0.3c0.2,0.2,0.3,0.5,0.3,0.8c0,0.1,0,0.1,0,0.2
		c0,0.1-0.1,0.2-0.1,0.4l-10.1,30.9c-0.5,1.3-1.3,2-2.6,2H159.2z"/>
	<path class="st2" d="M180.8,72c0.1-1.8,0.5-3.6,1.2-5.2c0.7-1.6,1.7-3,3-4.2c1.3-1.2,2.9-2.2,4.7-2.9c1.9-0.7,4-1.1,6.4-1.1
		c2.4,0,4.5,0.4,6.4,1.1c1.9,0.7,3.5,1.7,4.8,2.9c1.3,1.2,2.3,2.6,3,4.2c0.7,1.6,1.1,3.4,1.2,5.2c0.1,1.4,0.1,2.9,0.1,4.4
		c0,1.5,0,3-0.1,4.3c-0.1,1.8-0.5,3.6-1.2,5.2c-0.7,1.6-1.7,3.1-3,4.3c-1.3,1.2-2.9,2.2-4.8,2.9c-1.9,0.7-4,1-6.4,1
		c-2.4,0-4.6-0.3-6.4-1c-1.9-0.7-3.4-1.6-4.7-2.9c-1.3-1.2-2.3-2.6-3-4.3c-0.7-1.6-1.1-3.4-1.2-5.2c-0.1-1.3-0.1-2.8-0.1-4.3
		C180.7,74.9,180.7,73.4,180.8,72z M202.5,80.5c0-0.6,0.1-1.3,0.1-2c0-0.7,0-1.5,0-2.2c0-0.8,0-1.5,0-2.2s-0.1-1.3-0.1-1.9
		c-0.1-0.8-0.2-1.6-0.5-2.3c-0.3-0.7-0.7-1.3-1.2-1.8c-0.5-0.5-1.1-0.9-1.9-1.2c-0.8-0.3-1.6-0.4-2.7-0.4c-1,0-1.9,0.1-2.7,0.4
		c-0.8,0.3-1.4,0.7-1.9,1.2c-0.5,0.5-0.9,1.1-1.2,1.8c-0.3,0.7-0.5,1.4-0.5,2.3c-0.1,0.6-0.1,1.2-0.1,1.9c0,0.7,0,1.4,0,2.2
		c0,0.8,0,1.5,0,2.2c0,0.7,0.1,1.4,0.1,2c0.1,1.6,0.7,3,1.7,4.1c1,1.1,2.5,1.6,4.6,1.6c2,0,3.6-0.5,4.5-1.6
		C201.7,83.5,202.3,82.2,202.5,80.5z"/>
	<path class="st2" d="M242.2,59.1c0.4,0,0.7,0.1,0.9,0.4c0.3,0.3,0.4,0.6,0.4,0.9v5.2c0,0.4-0.1,0.7-0.4,0.9
		c-0.3,0.3-0.6,0.4-0.9,0.4h-8.7v25.3c0,0.4-0.1,0.7-0.4,0.9s-0.6,0.4-0.9,0.4h-6.5c-0.4,0-0.7-0.1-0.9-0.4
		c-0.3-0.3-0.4-0.6-0.4-0.9V67h-8.7c-0.4,0-0.7-0.1-0.9-0.4c-0.3-0.3-0.4-0.6-0.4-0.9v-5.2c0-0.4,0.1-0.7,0.4-0.9
		c0.3-0.3,0.6-0.4,0.9-0.4H242.2z"/>
	<path class="st2" d="M272.7,85.8c0.4,0,0.7,0.1,0.9,0.4c0.3,0.3,0.4,0.6,0.4,0.9v5.2c0,0.4-0.1,0.7-0.4,0.9
		c-0.3,0.3-0.6,0.4-0.9,0.4h-23.4c-0.4,0-0.7-0.1-0.9-0.4c-0.3-0.3-0.4-0.6-0.4-0.9V60.4c0-0.4,0.1-0.7,0.4-0.9
		c0.3-0.3,0.6-0.4,0.9-0.4h23c0.4,0,0.7,0.1,0.9,0.4c0.3,0.3,0.4,0.6,0.4,0.9v5.2c0,0.4-0.1,0.7-0.4,0.9c-0.3,0.3-0.6,0.4-0.9,0.4
		h-15.2v5.3h14.1c0.4,0,0.7,0.1,0.9,0.4c0.3,0.3,0.4,0.6,0.4,0.9v5.2c0,0.4-0.1,0.7-0.4,0.9c-0.3,0.3-0.6,0.4-0.9,0.4h-14.1v5.5
		H272.7z"/>
	<path class="st2" d="M318.5,59.1c0.4,0,0.7,0.1,0.9,0.4c0.3,0.3,0.4,0.6,0.4,0.9v19.7c0,2.3-0.4,4.3-1.1,6
		c-0.7,1.7-1.8,3.2-3.1,4.4s-2.9,2.1-4.8,2.7c-1.8,0.6-3.9,0.9-6.1,0.9c-2.2,0-4.3-0.3-6.1-0.9c-1.8-0.6-3.4-1.5-4.7-2.7
		c-1.3-1.2-2.3-2.6-3.1-4.4c-0.7-1.7-1.1-3.8-1.1-6V60.4c0-0.4,0.1-0.7,0.4-0.9c0.3-0.3,0.6-0.4,0.9-0.4h6.5c0.4,0,0.7,0.1,0.9,0.4
		c0.3,0.3,0.4,0.6,0.4,0.9v19.5c0,2,0.5,3.5,1.5,4.6c1,1.1,2.4,1.7,4.4,1.7c2,0,3.4-0.6,4.4-1.7c1-1.1,1.5-2.7,1.5-4.6V60.4
		c0-0.4,0.1-0.7,0.4-0.9c0.3-0.3,0.6-0.4,0.9-0.4H318.5z"/>
	<path class="st2" d="M341.8,59.1c2.1,0,4,0.2,5.7,0.7c1.7,0.5,3.1,1.2,4.3,2.2c1.2,1,2.1,2.2,2.7,3.6c0.6,1.4,1,3.1,1,5
		c0,1.9-0.3,3.6-1,5.1c-0.6,1.4-1.6,2.6-2.7,3.6c-1.2,1-2.6,1.7-4.3,2.2c-1.7,0.5-3.6,0.7-5.7,0.7h-6.3v10.1c0,0.4-0.1,0.7-0.4,0.9
		c-0.3,0.3-0.6,0.4-0.9,0.4h-6.5c-0.4,0-0.7-0.1-0.9-0.4s-0.4-0.6-0.4-0.9V60.4c0-0.4,0.1-0.7,0.4-0.9c0.3-0.3,0.6-0.4,0.9-0.4
		H341.8z M335.5,74.6h6.1c1.4,0,2.5-0.3,3.4-0.9c0.9-0.6,1.4-1.6,1.4-3c0-1.4-0.5-2.4-1.4-3s-2-0.9-3.4-0.9h-6.1V74.6z"/>
</g>
</svg>
