<?xml version="1.0" encoding="utf-8"?>
<!-- Generator: Adobe Illustrator 21.0.0, SVG Export Plug-In . SVG Version: 6.00 Build 0)  -->
<svg version="1.1" id="Layer_1" xmlns="http://www.w3.org/2000/svg" xmlns:xlink="http://www.w3.org/1999/xlink" x="0px" y="0px"
	 viewBox="0 0 532.7 108.4" style="enable-background:new 0 0 532.7 108.4;" xml:space="preserve">
<style type="text/css">
	.st0{fill:#005DAA;}
	.st1{fill:#EE3224;}
</style>
<g>
	<path class="st0" d="M173.7,40.7c-2.4-1.6-6.3-3-11.9-3c-11.5,0-19.6,8.7-19.6,20.8c0,8.7,5.6,16.4,14.8,16.4
		c4.4,0,7.9-1.4,10.9-3.2l-1.6,9.9c-3.8,1-7.8,1.4-11.7,1.4c-15.7,0-23.1-10.5-23.1-24.6c0-16.7,11.4-29,29.7-29
		c5.2,0,10.7,0.7,15.2,2.5L173.7,40.7z"/>
	<path class="st0" d="M199.5,59.9c0-5-1.7-9.1-7.6-9.1c-7.9,0-11.8,8.7-11.8,15.6c0,5,2.1,9,7.8,9C195.7,75.3,199.5,66.4,199.5,59.9
		 M209.9,59.8c0,13.4-9.3,23.2-22.8,23.2c-10.8,0-17.4-6.7-17.4-17.4c0-12.8,9.8-22.6,22.6-22.6C202.7,43.1,209.9,49.3,209.9,59.8"
		/>
	<path class="st0" d="M215.9,49.4c0.4-2.3,0.8-4.3,1-5.5h9.7l-0.7,3.7h0.1c2.7-2.5,6.5-4.6,10.8-4.6c7.5,0,12.5,4.7,12.5,12.2
		c0,2.9-0.7,5.9-1.3,8.3l-4,18.5h-9.9l3.7-18c0.5-2.6,1.1-5.2,1.1-8c0-3.2-2.2-5.3-5.4-5.3c-6.9,0-9.4,6.5-10.7,12.2l-4.1,19.2h-9.9
		L215.9,49.4z"/>
	<path class="st0" d="M279.2,52.1c-2.6-1-5.3-1.8-8.2-1.8c-3,0-6.7,0.8-6.7,3.9c0,4.8,12.9,6.6,12.9,16c0,9.9-8.7,12.9-17.2,12.9
		c-4,0-8-0.6-11.7-2.3l2.2-7.9c2.8,1.6,5.6,3,9.5,3c3.3,0,6.8-1.1,6.8-4.2c0-6.2-12.9-6.8-12.9-16.3c0-9,8.7-12.2,16.5-12.2
		c3.6,0,7.3,0.7,10.8,1.6L279.2,52.1z"/>
	<path class="st0" d="M307.4,59.3c0.1-0.9,0.2-1.7,0.2-2.6c0-4.1-2.2-6.4-6.3-6.4c-6.2,0-8.8,3.7-10.8,9H307.4z M289.2,66.1
		c0,7.1,3.8,9.6,10.6,9.6c4.1,0,8-1,11.7-2.7l-1.3,7.9c-3.9,1.2-8.1,2.1-12.2,2.1c-11,0-18.4-5.3-18.4-16.7
		c0-11.9,9.2-23.3,21.7-23.3c9.4,0,15.7,4.8,15.7,14.5c0,2.9-0.4,5.7-1,8.5H289.2z"/>
	<path class="st0" d="M322.9,49.1c0.3-1.6,0.6-3.3,0.9-5.1h9.5l-1.3,7.2h0.2c1.8-4.2,6.7-8.1,11.3-8.1c1.3,0,2.6,0.1,3.8,0.4
		l-2.1,9.7c-1.1-0.4-2.5-0.6-3.8-0.6c-7.1,0-10.5,6.3-11.7,12.5L326,82.2h-9.9L322.9,49.1z"/>
	<polygon class="st0" points="346.1,44 356.2,44 360.1,72 360.2,72 375.3,44 385.8,44 363.5,82.2 352.5,82.2 	"/>
	<path class="st0" d="M394.4,75.8c7.4,0,9.7-5.1,11.3-11.3h-3.5c-4.8,0-12.8,0.8-12.8,7.3C389.4,74.4,391.9,75.8,394.4,75.8
		 M404.2,76.3H404c-3.4,4.3-6.8,6.7-12.3,6.7c-6.9,0-11.8-3.9-11.8-10.9c0-12.6,14.1-13.6,23.4-13.6h3.5c0.3-1,0.3-2.1,0.3-3.3
		c0-3.9-4.2-5-7.6-5c-4.4,0-8.6,1.1-12.5,3l1.4-7.9c4.2-1.5,8.5-2.3,13-2.3c7.6,0,14.8,2.8,14.8,11.8c0,5.1-3.8,20.1-4.7,27.3h-8.4
		L404.2,76.3z"/>
	<path class="st0" d="M419.1,44h7.2l1.7-7.9l10.7-3.5L436.3,44h8.9l-1.6,7.3h-8.9l-3.6,16.7c-0.2,0.9-0.4,2.2-0.4,3.7
		c0,2.3,1.6,3.7,3.8,3.7c1.8,0,3.6-0.4,4.8-0.9l-1.7,7.7c-1.7,0.4-3.6,0.9-5.3,0.9c-6.7,0-11.5-2.7-11.5-10c0-3,0.6-5.9,1.3-8.9
		l2.8-12.9h-7.2L419.1,44z"/>
	<path class="st0" d="M452.5,27.5h9.9l-2.1,9.5h-9.9L452.5,27.5z M448.9,44h9.9l-8.2,38.2h-9.9L448.9,44z"/>
	<polygon class="st0" points="460.6,44 470.8,44 474.6,72 474.8,72 489.9,44 500.4,44 478.1,82.2 467.1,82.2 	"/>
	<path class="st0" d="M522.9,59.3c0.2-0.9,0.2-1.7,0.2-2.6c0-4.1-2.2-6.4-6.3-6.4c-6.2,0-8.8,3.7-10.8,9H522.9z M504.8,66.1
		c0,7.1,3.8,9.6,10.6,9.6c4.1,0,8-1,11.7-2.7l-1.3,7.9c-3.9,1.2-8.1,2.1-12.2,2.1c-11,0-18.4-5.3-18.4-16.7
		c0-11.9,9.2-23.3,21.7-23.3c9.4,0,15.7,4.8,15.7,14.5c0,2.9-0.4,5.7-1,8.5H504.8z"/>
	<path class="st0" d="M51.7,94c-4.4,2.6-5.9,2.6-8.6,2.4c-3.6-0.3-8.7-4.4-10.5-12.5c-3-13.5,0.9-31.3,10-47.8
		C54.7,14.2,74,0.3,90.4,0c-0.1,0-0.2,0-0.3,0L60.7,0C44-0.3,22.9,13.7,10.4,36.2C1.4,52.7-1.7,70.1,0.9,83.8
		c0.7,3.6,2.4,7.2,4.4,9.8c1.8,2.4,5.7,6.7,10.4,8.7c3.6,1.5,9.5,2.6,15.2,1.8C39.3,102.8,51.7,94,51.7,94"/>
	<path class="st0" d="M117.4,35.6c0.1-3.8-0.2-7.5-0.9-11c-0.7-3.6-2.4-7.2-4.4-9.8c-1.8-2.4-6.2-6.9-10.4-8.7
		C97,4,91.4,3.6,86.6,4.3c-7.5,0.6-20.9,10.1-20.9,10.1c4.4-2.6,5.9-2.6,8.6-2.4c3.6,0.3,8.7,4.4,10.5,12.5
		c1.1,5.1,1.3,10.8,0.6,16.8L117.4,35.6z"/>
	<path class="st1" d="M64.5,64.6l14.3-6.8l-2.9-1.4l5.8-6.9l-8.2,1.7l0.6-3.6L65.9,54c-0.1,0.1-0.1,0.1-0.2,0.1
		c-0.2,0-0.3-0.1-0.2-0.3c0-0.1,0-0.1,0.1-0.2L71.6,43l-4.1,1.7L66.8,38l-6.1,6.7L57.9,43l-2.5,10.8c0,0,0,0,0,0
		c0,0.2-0.2,0.3-0.4,0.3c-0.1,0-0.2-0.1-0.3-0.2l-3.1-6.3l-2.3,3.6l-6.8-1.7l0.3,6.9l-4.1,1.5l8.8,6.6l0,0c0.1,0.1,0.2,0.3,0.2,0.5
		c0,0.2-0.2,0.4-0.3,0.5l-3.6,3.3l10.6-1.3l-3.5,8.4l1.9,0l3.1-8.3l9.5,1.1l-1.1-3.3c-0.1-0.1-0.1-0.2-0.1-0.3
		C64.2,64.8,64.3,64.6,64.5,64.6"/>
	<path class="st0" d="M111.1,63.7c-1.2,3.1-2.2,4.8-4.2,8.5c-1.2,2.2-2.5,4.2-3.8,6.2c-12.7,18.8-32.1,29.8-46.8,30l-29,0
		c-0.1,0-0.2,0-0.3,0c16.4-0.3,35.7-14.2,47.8-36.2c0.4-0.7,0.8-1.4,1.1-2.1l0.1,0L111.1,63.7z"/>
</g>
</svg>
