<?xml version="1.0" encoding="utf-8"?>
<!-- Generator: Adobe Illustrator 20.0.0, SVG Export Plug-In . SVG Version: 6.00 Build 0)  -->
<svg version="1.1"
	 id="svg2" inkscape:version="0.48.4 r9939" sodipodi:docname="canada.svg" xmlns:cc="http://creativecommons.org/ns#" xmlns:dc="http://purl.org/dc/elements/1.1/" xmlns:inkscape="http://www.inkscape.org/namespaces/inkscape" xmlns:rdf="http://www.w3.org/1999/02/22-rdf-syntax-ns#" xmlns:sodipodi="http://sodipodi.sourceforge.net/DTD/sodipodi-0.dtd" xmlns:svg="http://www.w3.org/2000/svg"
	 xmlns="http://www.w3.org/2000/svg" xmlns:xlink="http://www.w3.org/1999/xlink" x="0px" y="0px" viewBox="0 0 1000 834"
	 style="enable-background:new 0 0 1000 834;" xml:space="preserve">
<style type="text/css">
	.st0{fill:#F2F2F2;stroke:#000000;stroke-width:0.913;stroke-linejoin:round;}
</style>
<sodipodi:namedview  bordercolor="#666666" borderopacity="1" gridtolerance="10" guidetolerance="10" id="namedview32" inkscape:current-layer="svg2" inkscape:cx="1071.1854" inkscape:cy="221.6741" inkscape:pageopacity="0" inkscape:pageshadow="2" inkscape:window-height="1137" inkscape:window-maximized="1" inkscape:window-width="1920" inkscape:window-x="1192" inkscape:window-y="118" inkscape:zoom="0.56594724" objecttolerance="10" pagecolor="#ffffff" showgrid="false">
	</sodipodi:namedview>
<path inkscape:connector-curvature="0" class="st0" d="M868.9,603.7l-0.8,0.6l0.4,0.1L868.9,603.7L868.9,603.7z"/>
<path id="MB" inkscape:connector-curvature="0" class="st0" d="M517.7,538.7l-19.4-5.8l-17.4,5.4l1.2-3.5l-4.2-16.1l-4.8-13.1
	l-10.1,0.5l-6.7-5.5l1.7-0.7l-0.1-17.3l-0.2-0.1l-12.5,0.2l-25-0.3l-25-1.3l-4.1-0.4L391,483l-6.7,78.8l-0.7,62.6l0.2,25l1,45.3
	l0.4,0l26.7,0.9l26.7-0.1l21.4-0.6l-0.1-6.2l-0.1-1.1l-2.4-67l17.1-19.7l43.8-62.1L517.7,538.7L517.7,538.7z"/>
<path id="SK" inkscape:connector-curvature="0" class="st0" d="M391.2,480.8l-4.6-0.3l-32-3.8l-4.5-0.7l-27.1-4.8l-4.4-0.9l-1.4,6.7
	l-10.7,52.8l-3.7,19.9l-9.3,53.1l-5.3,33.2l-6.8,46.8l1.1,0.1l44.6,6.7l2.6,0.2l53,4.5l2.3,0.1l-1-45.3l-0.2-25l0.7-62.6L391,483
	L391.2,480.8L391.2,480.8z"/>
<path id="AB" inkscape:connector-curvature="0" class="st0" d="M312.9,469.1l-38.5-10l-5.4-1.6l-32.1-11l-5.3-2L231,446l-5.8,15.9
	l-12.4,35.6l-12.3,37.2l-8.3,26.1l0.4,9l3.2,1.8l0.3,3.4l3.2,0.3l1.8,8l2,3.6l0.3,7.4l4.2,2.3l0.3,4.7l4.8,6.2l0.2,3.8l4.1,3.2
	l1.3,6.6l5.9,10.3l-0.4,1.2l5,6.6l1,17.3l-0.7,5.8l4.5,10.3l2.4,0.6l25.7,5.8l7.8,1.5l10.4,2l1.5,0.3l6.8-46.8l5.3-33.2l9.3-53.1
	l3.7-19.9l10.7-52.8l1.4-6.7L312.9,469.1L312.9,469.1z"/>
<path id="BC" inkscape:connector-curvature="0" class="st0" d="M126,649.2l0-0.2l-0.1,0L126,649.2L126,649.2z M126.4,644.7l0.3,0.9
	l0-0.1L126.4,644.7L126.4,644.7z M126.4,642.6l-0.2,0.3l0,0.1L126.4,642.6L126.4,642.6z M128,642.6l-0.6-0.2l0.6,0.8L128,642.6z
	 M107.1,632.1l0-0.3l-0.1,0L107.1,632.1L107.1,632.1z M128.2,640.5l-0.6,0.1l0,0.4L128.2,640.5L128.2,640.5z M106.2,631l0-0.3
	l-0.3,0.3L106.2,631L106.2,631z M106.9,630.4l0.2-0.1l-0.2-0.1L106.9,630.4L106.9,630.4z M106.8,630l-0.3,0l0.2,0.1L106.8,630
	L106.8,630z M107.2,630l-0.4-0.3l0,0.2L107.2,630L107.2,630z M126,639.1l-1.3,2.6l0.5,0.9L126,639.1L126,639.1z M108.6,631.4l0.6-1
	l-0.9,0.7C108.3,631.2,108.6,631.4,108.6,631.4z M124.8,636.6l-0.2,0.7l0.2,0.3L124.8,636.6L124.8,636.6z M124.8,635.9l-0.3,0l0,0.3
	L124.8,635.9L124.8,635.9z M127.9,640.3l-2.5-4.3l0.5,2L127.9,640.3z M100.9,622.2l0.2-1.2l-0.7,0.8
	C100.4,621.9,100.9,622.2,100.9,622.2z M102.6,623.3l-0.1-2l-0.5,0L102.6,623.3L102.6,623.3z M100.6,619.5l0.3-2.2l-1.3-0.7
	C99.6,616.6,100.6,619.5,100.6,619.5z M130,631.2l1.1-1.3l-1.5,0.6L130,631.2L130,631.2z M120.8,623.5l-0.3-0.3l-0.3,0.9
	C120.3,624.1,120.8,623.5,120.8,623.5z M131.5,628.7l0-1.2l-1,0L131.5,628.7L131.5,628.7z M117.9,622l-0.8,0.3l0.5-0.4L117.9,622
	L117.9,622z M116.7,622.3l-0.4-2.3l-0.6,0.5C115.6,620.6,116.7,622.3,116.7,622.3z M98.7,610.2l0-0.6l-1,0.5L98.7,610.2L98.7,610.2z
	 M125.8,620l-2.4,0.5l0.8,0.9C124.2,621.4,125.8,620,125.8,620z M121.8,620.4l0.4,3.6l0.5-0.6L121.8,620.4L121.8,620.4z
	 M119.4,615.8l0.4-0.3l0-0.3L119.4,615.8L119.4,615.8z M93.1,599.9l0.1-0.7L93,599L93.1,599.9L93.1,599.9z M120.1,608.1l-0.5-2.2
	l-0.7,1.9L120.1,608.1L120.1,608.1z M121.7,606.8l-1.4,0.7l0.2,0.5C120.5,608.1,121.7,606.8,121.7,606.8z M117.2,602.9l-0.6-1.3
	l-0.8,1.6L117.2,602.9z M111.2,599.7l0.4-1.2l-1.8-0.2L111.2,599.7z M104.3,592.3l-0.8-0.4l0.2,0.9
	C103.6,592.9,104.3,592.3,104.3,592.3z M107.6,594.7l-1.2-1.1l-2.5-0.4L107.6,594.7z M106.4,593.1l-1.7-1.1l-0.2,0.1L106.4,593.1z
	 M100,588.7l1.8,1.5l-0.4-0.8C101.5,589.3,100,588.7,100,588.7z M85,578.1l0.4-0.1l-0.8-0.1L85,578.1z M109.3,591.6l-0.4-2.2l-3,0.4
	C105.9,589.8,109.3,591.6,109.3,591.6z M105.5,587.6l-3-1.2l1.3,1.7L105.5,587.6z M95.3,581.7l0.1,0.9l0.1-0.5L95.3,581.7z
	 M92.9,580.5l-4.8-1l-1.1,5.5l1.2,1.8l4.7,0l-4.7,2.7l4,9.3l3.7-0.3l-1.8,5l4.7,1.5l2.8,6.9l-3.6-0.8l-1.7,3.3l5.7,2l-0.1,4.4
	l2.5-1.3l0.8,3.6l-2.5,1.1l2.2,5l5.9,1.2l-1.4,1.7l9.3,15.2l3.5,2.6l3.6-0.8l-2.1-7.9l1.2-1.1l-1.8-9.7l-1.5-1.1l-5.6-11.4l-1.4-7.1
	l-0.1-7.2L101.7,592L92.9,580.5L92.9,580.5z M104.2,586.5l-0.3-0.9l-0.8,0.4L104.2,586.5L104.2,586.5z M95,582.2l-1.4-1.8l-0.1,0.2
	L95,582.2z M97.7,578.8l-0.4-0.8l-0.1,0L97.7,578.8z M97.5,569.3l0.4-5.3l-2.2,4.6L97.5,569.3z M95.5,558.1l0.3-1.1l-0.6,0.2
	C95.2,557.3,95.5,558.1,95.5,558.1z M101,558l-3,0.4l-1,4.6l1.6,0L101,558L101,558z M71.9,540.6l-1.7,2.1l0.7,0.3L71.9,540.6z
	 M98.3,557.5l1-0.7l1-2L98.3,557.5z M108.4,557.4l2.4-2.6l-6.2,0.8l-3.6,4.4C101,560.1,108.4,557.4,108.4,557.4z M97.3,546.7
	l-1.7,2.9l2.1-2.1L97.3,546.7z M99.8,545.3l-2.4,0l1.1,3C98.5,548.3,99.8,545.3,99.8,545.3z M91.6,539.6l0.3-0.7l-0.2,0L91.6,539.6
	L91.6,539.6z M71.1,525.9l1.1,2.6l0.3-1.9L71.1,525.9L71.1,525.9z M71.8,525.5l-1.2-1l0.1,0.5L71.8,525.5L71.8,525.5z M95.6,540.5
	l-2-1.5l1.7,5.5L95.6,540.5z M102.5,546.3l2.3-3.5l-1.7,0.3L102.5,546.3L102.5,546.3z M71.4,523.2l-0.8-0.6l-0.2,0.3L71.4,523.2
	L71.4,523.2z M102,542.1l0.3-1.5l-1.3,1.5C101,542.1,102,542.1,102,542.1z M73.9,523.9l-0.4-0.1l0,0.3L73.9,523.9z M68.2,518
	l0.1-0.5l-1.1-0.1L68.2,518L68.2,518z M93.1,532.7l-0.7-0.4l-0.2,0.6L93.1,532.7z M92.6,530.7l0.4,1.1l0.6-0.5L92.6,530.7z
	 M74.5,515.5l-3.3,0l-4.4-2.6l1,14.2l2,5.1l0.7,7.1l2.1-2.2l-2.4-4.2l0.2-11.3l1.9,1.2C72.4,522.8,74.5,515.5,74.5,515.5z
	 M103.3,534.6l-6.7-0.3l-0.8,5.7l3.4,4.6L103.3,534.6L103.3,534.6z M87.5,518.2l-0.2-0.6l-0.1,0.4L87.5,518.2z M66.2,503.1
	L66.2,503.1l-0.1,0.2L66.2,503.1L66.2,503.1z M91.6,518.4l-2.1-2.5l3.7,6.7L91.6,518.4z M104.4,525.2l1.4-2l-3.4-0.3L104.4,525.2z
	 M91.5,513.2l-1.3-1.5l-0.1,0.6L91.5,513.2z M96.8,519.2l-1.4-5.7l-2.1-0.2l1.7,13l2.8-1.9L96.8,519.2L96.8,519.2z M68.3,495.2
	l-0.4-0.1l-0.1,0.4C67.9,495.5,68.3,495.2,68.3,495.2z M71.8,492.3l-4.4,6.2l1.8,9.8l-1.8,5.1l7.1-1.1l6.2-8.4l-2.8-4.7l-3.8,6.7
	l-0.4-2.8l3.4-0.7l0.5-5.1l-3-0.4L71.8,492.3L71.8,492.3z M96.5,508.6l-0.3-0.9l0,0.7L96.5,508.6z M72.2,491.9l0-1.6l-0.4,0.5
	L72.2,491.9L72.2,491.9z M96.1,505.5l0.1-1.9l-0.5,0.4L96.1,505.5z M97.3,505.5l-0.6-0.8l0.2,1.1C96.8,505.7,97.3,505.5,97.3,505.5z
	 M94.6,500.8l-0.9,0.1l-0.1,0.5L94.6,500.8L94.6,500.8z M92.8,495.6l0.4-0.5l-0.4-0.3L92.8,495.6z M95.9,496.8l-2.6,0.2l-0.7,1.5
	L95.9,496.8z M99.5,496.4l-1.1-1.6l-0.1,0.2L99.5,496.4L99.5,496.4z M100.3,495.9l3.9-2.3l0.2-1.3
	C104.5,492.3,100.3,495.9,100.3,495.9z M231.5,444.5l-4-1.6l-12-5l-3.9-1.7l-7.8-3.6l-3.9-1.8l-3.9-1.8l-55.9-31.3l-3.5-2.3
	l-37.8-27.7l-13.2-11l0.1,0.2l1.2,3.6l-1,3l1.1,14.3l-1.9,4.8l6.3,1.2l6.2-3.2l10.7,0.1l0.5,3.3l-1.8,5l0.4,13.1l1.6,5.3l-1.1,16.3
	l-2,22.2l-1.3,3.7l0,6.4l2.3,2.1l5.5,11.6l1.8,7.5l-2.6,2l-3.1,9.9l-8.4,8.5l-0.6,4.3l-2.4-0.6l-1.2,12l2.8,13.5l7.2-7.5l-0.5,8.2
	l-2.3-2.2l-0.8,6.4l2.2,21.2l-1.1,2.6l7.2-1.4l1.6,6.2l-4-2.4l-2.6,0.6l-7,10.1l2.7-2.4l10.1,5.6l-7-3.1l-7.1,3.6l5.1,3.1l-5.9-1.4
	l2.3,8.3l2.8,3.3l3.6,0.8l3.3,5.7l7.1,1.4l-8,0.2l4.8,4.1l4.6-2.1l-3.2,4l2.3-0.3l2.1,2.9l4-6.3l1.6-0.9l-2.3,6l-3.5,3.5l6.8,0.6
	l-4.2,12l6.4,2.1l-2.6,3.1l3.9,6.9l4.8-2.2l0.6,6.2l-2.6-0.5l0,6l2.1-1l1.6,2.4l13.4,5.4l17.2,6.3l32.5,10.6l17.8,5.1l17.8,4.6
	l0.2,0.1l-4.5-10.3l0.7-5.8l-1-17.3l-5-6.6l0.4-1.2l-5.9-10.3l-1.3-6.6l-4.1-3.2l-0.2-3.8l-4.8-6.2l-0.3-4.7l-4.2-2.3l-0.3-7.4
	l-2-3.6l-1.8-8l-3.2-0.3l-0.3-3.4l-3.2-1.8l-0.4-9l8.3-26.1l12.3-37.2l12.4-35.6L231,446L231.5,444.5L231.5,444.5z"/>
<path id="NU" inkscape:connector-curvature="0" class="st0" d="M642.4,615.8l0.1-0.2l0-0.1L642.4,615.8z M640.2,613.8l-0.3,0
	l-0.5,0.5L640.2,613.8L640.2,613.8z M638.6,610.6l-0.4,0.2l0.8,0L638.6,610.6L638.6,610.6z M639.2,609.7l-0.1-0.4l-0.2,0.3
	L639.2,609.7L639.2,609.7z M638.3,608.3l-4.1,2.7l0.6,0.8L638.3,608.3z M641.7,607.5l-0.3-0.6l-0.1,0L641.7,607.5L641.7,607.5z
	 M635,606l0.7-0.6l-0.5,0.1L635,606z M637.1,599.4l-0.3-0.3l0.1,0.5L637.1,599.4L637.1,599.4z M638.2,590.6l-0.2-0.1l-0.3,0.4
	L638.2,590.6L638.2,590.6z M627.4,591.1l-0.9-1.2l-0.7,1L627.4,591.1L627.4,591.1z M609.1,592.9l-5.4,2.9l-0.8,2.5l12.6,2.4l2.9-2.8
	l-5.8-5.3L609.1,592.9z M635.2,585l-0.4,0.3l0.4-0.1L635.2,585L635.2,585z M624.6,586.5l-1,0.2l0.7,1.7L624.6,586.5z M634.8,582.9
	l-0.4,0.2l0.3,0L634.8,582.9L634.8,582.9z M633.2,582.5l0.1,0.2l0.1-0.2L633.2,582.5L633.2,582.5z M631.7,577.5l-0.2-0.2l0,0.2
	L631.7,577.5L631.7,577.5z M623,576.2l-0.6-0.4l-0.2,0L623,576.2L623,576.2z M626.5,570l-0.8,0.4l0.1,0.2L626.5,570z M626.3,568.9
	l-0.2,0l-0.2,0.1L626.3,568.9L626.3,568.9z M626.6,568.5l-0.3,0l0,0.1L626.6,568.5L626.6,568.5z M608.1,571.6l-0.2-0.7l-0.1,0
	L608.1,571.6L608.1,571.6z M624.4,566.1l-0.2-0.1l0,0.1L624.4,566.1L624.4,566.1z M624.9,556.4l-2.1,0.6l-2.4,2L624.9,556.4
	L624.9,556.4z M639.8,541.7l2.5-4.9l-0.8,1L639.8,541.7z M622.6,534.7l-0.1,1.6l0.6-1.6L622.6,534.7z M645,526.7l-0.6-0.7l0.2,0.7
	L645,526.7z M644.6,525.1l-0.4-0.7l-0.2,0.2L644.6,525.1z M631.3,527l-0.8,0.3l0.4,0.2L631.3,527z M632.8,526.3l-1,0.3l-0.1,0.6
	L632.8,526.3z M633.8,525.3l-0.3-0.2l0.1,0.2L633.8,525.3L633.8,525.3z M635.9,524l0-0.9l-0.3,0.7L635.9,524L635.9,524z
	 M624.4,527.9l-1.4-1.2l-0.4,5.2L624.4,527.9z M614.4,530.2l-2.4,0.2l-1.7,3.4L614.4,530.2L614.4,530.2z M629.1,522.4l-0.2-0.1
	l0,0.3L629.1,522.4L629.1,522.4z M622,522.5l-1-0.1l-0.1,0L622,522.5z M617.9,523.5l-0.9,1.7l0.5,7l-1.7-0.4l-3.2,7.9l6.5-3.1
	L617.9,523.5z M625.1,520.8l0,0.1l0.9-0.1L625.1,520.8z M642.6,514.8l0.1,0.6l0.2-0.1L642.6,514.8z M610.3,523.7l0.3-1.6l-0.2-0.3
	L610.3,523.7z M610.5,519.9l0.5,2.5l0.4-1L610.5,519.9z M641.2,511.2l-0.3-0.5l0,0.1L641.2,511.2z M640.9,510.6l0.2-0.5l-0.3-0.6
	L640.9,510.6z M640.9,509.2l-0.3-1.2l-0.8-1L640.9,509.2z M639.4,506.5l-0.5-0.8l0,0.6L639.4,506.5z M622.8,509.9l-0.2-0.7l-0.7,1
	L622.8,509.9z M621.6,508.9l-0.3-0.3l0,0.5L621.6,508.9z M636.5,501.7l-0.1-0.9l-0.5-0.5L636.5,501.7z M608.6,508.4l-1.1,0l0.8,2.6
	L608.6,508.4z M607.6,501.9l-0.1,0l0.1,0.2L607.6,501.9z M626.4,491.2l-1.3-0.2l0.7,0.1L626.4,491.2z M625.1,490.4l-1.7-0.8l-1.3,0
	L625.1,490.4z M620.6,489.1l-0.7,0.1l0.5,0L620.6,489.1z M594.7,494.8l-0.3,0l-0.2,0.2L594.7,494.8L594.7,494.8z M619.5,488.5
	l-0.7-0.4l0,0.3L619.5,488.5L619.5,488.5z M614.4,485.7l-0.7,0.5l2.6,0.9L614.4,485.7z M614.1,482.3l-0.3,0l-0.1,0.5L614.1,482.3
	L614.1,482.3z M610.9,483.2l-0.7-0.9l0.3,0.7L610.9,483.2z M613.3,480l-0.1-0.2l-0.1,0.2L613.3,480z M593.8,482.8l-0.3-0.3l0,0.3
	L593.8,482.8L593.8,482.8z M594.5,478.3l0,0.4l0.1,0L594.5,478.3L594.5,478.3z M595.6,476l-0.2-0.7l0,0.4L595.6,476z M593.2,475
	l-0.7,0.3l0.3,0L593.2,475L593.2,475z M591.3,475.3l0.3-0.5l0.1-0.2L591.3,475.3z M594.4,472.6l-0.1-0.2l-0.1,0.2L594.4,472.6
	L594.4,472.6z M591.7,471.6l0.2-0.7l0-0.1L591.7,471.6z M593,470.5l-0.2-0.3l-0.2,0.3L593,470.5L593,470.5z M618.6,463.3l-0.6,0.2
	l0.3,0.2L618.6,463.3z M620,460.4l-0.2-0.1l0,0.1L620,460.4L620,460.4z M597.1,465.7l-0.1-0.2l0,0.1L597.1,465.7z M596.4,465.4
	l0-0.4L596.4,465.4L596.4,465.4z M596.9,464.7l0-0.4l-0.2,0.3L596.9,464.7z M616.1,454.5l-0.2-0.1l-0.6,0.2L616.1,454.5L616.1,454.5
	z M615.7,453.3l0.2,0.2l0-0.3L615.7,453.3L615.7,453.3z M730.8,408.6l-0.2-0.4l0.1-0.5l0.4-0.4l0,0l-4.1-0.4l2.9,1.5L730.8,408.6
	L730.8,408.6z M727.2,404.3l-0.3-1.1l-0.1,1.1L727.2,404.3L727.2,404.3z M611.1,445.1l0-0.1l-0.2,0.2L611.1,445.1L611.1,445.1z
	 M717.9,387.6l0.7,4.3l0.1,1.1L717.9,387.6L717.9,387.6z M708.1,387.8l-1.1,1.1l2.4-0.1L708.1,387.8L708.1,387.8z M473.3,444.9
	l-1.5,0.4l1.8,1.1L473.3,444.9L473.3,444.9z M590.4,418.7l-4.1,0.9l-1.6,5.2l1.8,6.7l4.5,2.6l1.4-13.3L590.4,418.7z M478.6,435.6
	l-1.6,0l0.5,0.4L478.6,435.6L478.6,435.6z M711.3,371.7l-0.9,2.8l2.9-0.4L711.3,371.7z M603.8,410.9l-0.3,0.9l0.5,0.3L603.8,410.9z
	 M709.6,372.1l-1.4-0.2l-0.2,0.8L709.6,372.1L709.6,372.1z M490.2,429.3l-1.8,0.3l0.9,0.1L490.2,429.3z M630.8,400.3l-0.5,1.3l3.8,0
	L630.8,400.3L630.8,400.3z M695.8,372.5l-2.4-0.6l0,0.3L695.8,372.5L695.8,372.5z M565.6,412.9l-5.2,1.7l-6.3,4.8l0.8,11.6l1.9-2.3
	l2.7,0.7L568,417L565.6,412.9z M691.6,372.4l-2-1.5l0.8,1.3L691.6,372.4z M680.3,369.5l-1.5-1.1l1.6,1.7L680.3,369.5z M493.1,414.4
	l-1.2-0.9l0.6,1L493.1,414.4z M594.3,396l-0.5,2.1l6,4l3-4L594.3,396z M490.1,412.6l1.4,0.9l1-0.6L490.1,412.6z M708.1,355.4
	l0.2,1.3l1.7,0.1L708.1,355.4z M603.8,389.9l2.3,4.1l2.1,0.2L603.8,389.9L603.8,389.9z M704.7,349.3l-0.3-1.6l-0.9,0.4L704.7,349.3
	L704.7,349.3z M700.8,348.4l0.3,2.1l3.1,0.5L700.8,348.4L700.8,348.4z M631.8,369.9l-0.2,1.4l0.6,0.2L631.8,369.9L631.8,369.9z
	 M605.2,377.7l-0.6,0.3l0.7,0.7L605.2,377.7z M628.4,366.1l-0.6-1.3l0.4,4.6L628.4,366.1z M689.3,336.9l-1.2,2.5l-0.4,1.7
	L689.3,336.9L689.3,336.9z M672.7,332.2l-0.5-0.4l-0.1,0.7L672.7,332.2L672.7,332.2z M503.3,375.9l0.5,0.4l0-0.5L503.3,375.9z
	 M666.1,326.7l-1.9,0.8l-0.1,0.2L666.1,326.7z M665.9,325l0.5,0.3l0.5-0.4L665.9,325L665.9,325z M547.2,361.1l-2.3,0.2l0.2,0.3
	L547.2,361.1L547.2,361.1z M530.5,365l-2-1l-2.3,9.5l0.6,9.3l-0.6,4.8l2.5,9.7l-5.5,4.5l-2,6.1l2.9,0.8l1.8-2.3l7.3-3.1l1.9,9.9
	l1.8,2l6.8-4.8l2.5-6.5l4.3-4.5l-1.2-3.5l1.1-2.2l3.9,2.3l4.5-1.2l0.7,3.2l13.8,3.7l5-8.2l-6.2-4.1l-0.8,1.2l-8.2,2l2.5-2.3
	l-2.4-6.7l-2.9-2.4l-10-3.7l-1.4-2.2l-10.9-5.8l-1.8,5.4L530.5,365L530.5,365z M667.4,320.6l-1.2,0.3l0.5,0.8L667.4,320.6z
	 M533.6,360.4l-0.9-0.1l4.3,8.2l0.4-2.8L533.6,360.4z M533.4,359.6l0-0.6l-0.4,0.1L533.4,359.6z M544.6,357.6l-0.4-0.2l0.1,0.6
	L544.6,357.6L544.6,357.6z M538.4,357.5l2.2,3.6l6.4,4.3l0.8-1.2l-4.3-1.7l0.4-2.3L538.4,357.5L538.4,357.5z M546.9,352.2l-1.1-0.5
	l0.1,1.5L546.9,352.2z M525.8,353.3l0.1-0.5l-0.5,0.3L525.8,353.3z M364.6,342.6l1.2-2.7l-0.3,0.3L364.6,342.6z M369.2,339.1
	l-1.1-2.7l-0.3,0.9L369.2,339.1L369.2,339.1z M680.1,286.8l-0.7,1.7l2.3-1.9L680.1,286.8z M367,332.3l-1.6-0.2l0.8,0.6L367,332.3z
	 M364.2,328.8l-0.8,0.6l1.2,0.6L364.2,328.8L364.2,328.8z M677.3,284.7l-2.1-1l0.1,0.8L677.3,284.7z M360.8,323l-0.7,0.7l0.6-0.1
	L360.8,323L360.8,323z M327.4,312.7l-0.7,0l1.4,0.6L327.4,312.7L327.4,312.7z M333.3,313.5l-1.1,0.3l-1.2-0.3L333.3,313.5
	L333.3,313.5z M368,322.6l-0.5-1.3l-0.6,0.5L368,322.6L368,322.6z M431.1,327l-0.7,0.4l0.3,1.2L431.1,327L431.1,327z M355.3,316.7
	l1.4-1.3l-2.4,1L355.3,316.7z M338,310.6l-0.4-0.7l-0.6,0.4L338,310.6L338,310.6z M603.1,303.5l-3.1,1l3.8,4.6l7-2.7l-1.2-2.9
	L603.1,303.5z M519.7,325.6l-3.1-6.6l1.5,10.8L519.7,325.6z M345.6,311l1.6-1.1l-0.1-0.2L345.6,311z M593,302.1l-8,6.3l1.4,13.4
	l4.7,2.1l8.9-6.6l0.6-2.6l-3.8-11.9L593,302.1L593,302.1z M570.3,311l-0.2-3.3l-1.5,0.5L570.3,311L570.3,311z M423.9,322.4l-0.3-1
	l-0.6,0.2L423.9,322.4z M603,300.3l-0.9-2.8l-1.3-0.9L603,300.3z M353.4,307.7l-0.5-1.4l-1.5,0.4L353.4,307.7z M354.3,306.2
	l-0.6,0.7l1.1-0.2L354.3,306.2z M394,317.2l0.8-1.7l-3.3-2.1L394,317.2z M334.3,300.2l-0.3-0.4l-0.7-0.3L334.3,300.2L334.3,300.2z
	 M571.4,302l-0.3,3.5l1.2-2.3L571.4,302z M599,295.3l-2.8-0.2l0.8,0.8L599,295.3L599,295.3z M332.7,299.1l-0.5-1.3l-0.1,0
	L332.7,299.1L332.7,299.1z M596.4,296.3l-3.1-2.4l-0.2,3.4L596.4,296.3z M637.5,276.2l1.6,0.2l2.1,0.3L637.5,276.2L637.5,276.2z
	 M413.7,312l-3.2,1.1l0,1.5L413.7,312L413.7,312z M332.3,294l0.2-0.4l-0.6-0.3L332.3,294L332.3,294z M424.9,310.3l-2.4-2.4l-0.9,5.4
	l2.5-0.1L424.9,310.3L424.9,310.3z M425.9,309.8l0.2-2.8l-1.6,1.3L425.9,309.8L425.9,309.8z M491.5,306.1l-0.2-0.1l1,1.4
	L491.5,306.1z M569.1,287.8l-3.3,11.6l3.1-3.2L569.1,287.8z M547.7,292.1l-1,1.5l1.2-0.6L547.7,292.1L547.7,292.1z M491.8,300.9
	l-2,1.4l1.1,1.7L491.8,300.9L491.8,300.9z M578.1,284.8l-1.8,0.5l0.6,3.6L578.1,284.8L578.1,284.8z M449.3,299.1l3.4,1.8l-0.6-1.7
	L449.3,299.1z M639.1,260.4l-1.7-0.2l0.1,2L639.1,260.4z M455.6,298.2l-2.2,4l2.9,1.3L455.6,298.2L455.6,298.2z M634.5,259.3
	l-0.5,0.9l1.3,2.4L634.5,259.3z M414,294.9l-0.1-1.3l-0.4,0.1L414,294.9L414,294.9z M571.1,281.6l-1.7-0.9l-3.3,5.7l3.4-1.9
	L571.1,281.6z M559.6,281.9l-6.5,2.8l-0.3,1.6l5.8,2.1l-0.9-2.8L559.6,281.9L559.6,281.9z M541.6,286.9l-0.2-0.5l-0.2,1L541.6,286.9
	z M534.8,287.8l-2.4,0.6l1.7,0.6L534.8,287.8L534.8,287.8z M480.9,293.4l0.1-1l-0.3,0.4L480.9,293.4L480.9,293.4z M483.3,293.1
	l-1.1,0.4l-0.9,0.5L483.3,293.1z M444.4,298.2l-1.7-5l-4,2.2l-3.6,10l-6.2,2.7l0.6,2.6l19.2,9.6l8.2-6l1.1-2l-6.2-3.2l0.1-4.2
	l-6.3-8.4L444.4,298.2L444.4,298.2z M445.2,292.3l-0.6-1l-0.3,0.9L445.2,292.3L445.2,292.3z M511.7,285l3.4,2.1l-0.6-2.1L511.7,285
	L511.7,285z M424.3,284.5l0.2-1.2l-0.7,0.4L424.3,284.5z M601.9,245.1l0.5,4.8l1.7-2.4L601.9,245.1z M592.2,241.4l-0.6,0.2l0.2,1
	L592.2,241.4L592.2,241.4z M594,238.4l-0.8-2l-1,0.4L594,238.4z M460.8,255.7l-1.5,1.8l1.1,0.1L460.8,255.7L460.8,255.7z
	 M299.2,267.2l-12.8,28.1l5.5,11.6l17.3,31l15.6,23l12.4,3.1l1.5,1.8l5.1,11.7l11,6.2L400,399l-4.4,40.3l-4.3,41.4l0,0l4.1,0.4
	l25,1.3l25,0.3l12.5-0.2l0,0l0-9.6l2.1-0.6l4.3-12.3l-0.2-3.2l6.4-9l-1.7-1.9l3.1-1.5l-1.1-1.8l3.4-1.1l-1.3-4.3l3.1-2.8l7.1-3
	l-4.8-4.1l2.5-1l6,1.3l3.4-3.4l2.2-0.3l-3.9-10.1l-2,0l-3.2-3.9l-12.9-4l-3.6-0.5l0.8-1.9l13.3,5.5l11,2.9l0.7-2.6l4.1,0.6l2.5-6.3
	l-2.7-2.7l2.9-2.1l0.2,2.9l7,0.5l10-14.7l1.8-1.2l2.1-7.6l-1-1.7l-6.2,0l-12.5-2.8l-4.6-5.2l-8.9-1.7l0.9,2l9.5-2.3l9.4,3.8l-2,0.2
	l7.5,5.1l6.5-2.2l3.6-5.7l4.2-10.1l-6.7-2.8l0.4-3.7l9.6,0l1.1,3.8l11.8-1l-6.8-8.7l3.2-2.1l0.5,1.9l5.2,5.9l2.8-4.5l2.4-0.8
	l6.6-9.7l0-9.6l-8-8.3l0.2-1.2l-4.8-5.9l5.6-2.3l3.2-3.8l-4.1-4.6l1.4-5.4l-4.2,0.1l-5.2-6.1l-7-0.4l-4.6-2l-6.6,1.7l-0.2,7.3
	l4.6,7.5l-0.9,3.6l2.8,1l-5.8,1.2l0.2,5.6l-2.2,9.2l-6.6,15.5l-0.2,2.4l-8.3-12.5l0-10.5l1.9,2.8l0.7-4l-1.3-5.2l-2.5-4.4l-5.6-5.8
	l-2,0.5l-4.3,17.6l-8.5-17.5l2.2-0.3l1-4.2l-6.9,1l-4.9-6l1.8-1.2l0.4-5.9l4.3,0.5l-4.8-9l-2.4-0.9l-1.3-3.7l-1.2-9.3l-3.3-7.3
	l-4.1,1.7l-0.5-6l-3.9,1.4l-4.7,6.8l3.2,1.2l-5.9,4l-1.5,4.8l0.2,10.7l-1.9,4.8l5.4,8.6l3,2.9l6.5,3.6l3.9-1.9l0.1,1.9l-5,2.1
	l4.3,13.4l-4.5,6.7l-3.8,4.1l-5-0.2l-1.5,7.2l2,3.5l-0.5,8.3l-1-2.3l-5.4-1l-1.4-4.5l3.8-12.2l-6.1-2.5l-0.4-2.1l-5-0.5l-6.2,3.9
	l3.6,4.1l2.7-1.1l3.5,6.4l-3.8,1.4l-7.2-9.3l1.9,4.6l-6.1,2.1l-6.3-2.8L417,331l-4.7,2.2l-4.6-1.6l-7-6l0.1-3.1l-3,2.5l-5.6-3
	l0.6-2.1l-5.4-4.3l0.4-8.5l-2.6-2l-8.2,3.4l-8,1.2l-1.5,4.6l0.6,3.5l4-3l3.9,2l5.3-4.1l5-0.8l-6.1,7.6l-1.8-1.3l-10.8,7.8l2,5.3
	l-0.9,1.5l1.8,5.7l-3.4,5.5l-2.1,1.2l0.2,3.4l-3.8-11.5l1.7,2.1l-1-11.6l-1.3,4l-1.6-7.4l-4.9-6.4l-7.2,2.5l-0.2-1.1l-6.4,0.2
	l-11.3-2.1l-10.8-7.6l3.4-1.4l0.4-3.2l2,1.3l5.8,0l1.9-2.6l-1.4-6.4l-2.4-4.7l-6.9-4.6l0.5,2.2l-9.1-5.4l-5.1-7.7l-6-4.4
	L299.2,267.2L299.2,267.2L299.2,267.2z M459.3,237.2l-0.2-1.4l-0.4,0.4L459.3,237.2z M454.2,231.3l-2.2,1.8l1.6,1.7L454.2,231.3
	L454.2,231.3z M382.6,224.4l-0.3,0.9l-1.1,3.4l0,0l0,0l0.4,0.5l-0.1,1.1l-0.5-0.8l-0.4,1.5l0,0l0,0l0.5,2.6l-0.6,0.1l-0.4-0.8l0,0
	l-0.1,0.5l0,0l0,0l0.8,1.1l0,0.3l-1.1-0.7l0,0L366,280.3l-15.1-3.9l-3.2,2.5l-7.3-5.6l-16.9-5.8l-1.1,7.1l-0.1,0.2l-0.6,0.6l3.5,7.3
	l6.5,3.2l3,0.2l3.8,3l-2.2,7.6l1.8,6.7l14.8,1.5l3.1,1.4l15.7-3.6l6.3-0.7l7.3-7.9l-0.6,5.8l9.1,4.2l1.9,3.7l2-1.2l5.8,3l5.5,0
	l5.1-2.2l0.8-3.5l-2.1-3.1l-4.3-1.2l-2.5-6.1l4.4,3.1l8.4-5.9l0.4,4.2l3.3-9.5l-2.6,0.9l-1.2-3.6l-2.1-0.3l-3.3-3.7l-5.2-3l-3.1-7.5
	l1.9-9.4l-1.4-18.4l0.3-10.8l-4.6-7.6l-2.5,1.5l-4-4l0.2,2.9l-2.2,2.7l-2.6,17.6l1.8,5.1l-4.2,3l-1.9-0.8l0.7-7.2l-0.1-9.8l-0.8,0.4
	L382.6,224.4L382.6,224.4L382.6,224.4z M398.2,216l-0.9-1.3l-1.3,1.5L398.2,216L398.2,216z M412.6,223.8l-2.1-9.3l-7,0.3l-2.7,3.8
	l3.7,5.6l2.9,7.5L412.6,223.8z M542.2,210.4l-2.5,3.4l1.1,4.5l2.9,1.6l2.6,5.1l14.7-2.6l6.4-0.5l-8.4-11L542.2,210.4L542.2,210.4z
	 M509.2,214.4l-6.6,4.1l-5,7.3l1,0.4l-6.7,18.8l1.1,3.2l-0.1,8.1l-0.9,1.5l1.1,6.1l12,1.2l3.4,2.7l-6.1,2.2l-0.9-1.4l-6.8-0.4
	l1.1,3.9l4.8,7.5l5,3.5l6.1-4.8l2.6,0.5l2,5.5l9.2-1.3l0.4,1.5l16.4,0.3l1.4,1.1l8.4-2.1l-6.4-3.8l3.9-1.3l9.5,2.4l6.2-2.8
	l-4.7-10.5l5.1,4.1l5.3,1.4l1.8,6.4l3.7-3l1.8,2.7l-2.1,1l11.4,4.2l1.4,2.2l-2.8,9.6l4.4-5.9l4.2,1l5.3,3.7l4.4-0.9l2.2,3.7l9.3,6.5
	l5.2,12.3l-1.7,1l-3.7,14.1l-2.9,7.6l7.7,4.7l2.4,4.4l-3.1-0.5l-4.9,5.2l-9.7,3.6l6.4,2.3l0.8,7.2l-5.3-8.1l-7.8-1.4l-5.7,0.5
	l-0.4,6.4l-2.2,2.5l-0.2,6.3l2.5,4.9l11.4,0.9l7.3-6.6l-1.7-0.9l10.1-0.7l2.3-6.1l1.3,5.7l1.6,0.3l-0.5-4.7l1.2-2.1l4.3,0.3
	l-1.3,3.1l5.7,3.3l0.6,2.3l9.5,4.2l-0.1-2.9l6,4.4l-3.3,2.1l9,5.9l8.4,1.3l6-2.7l0.2,2.3l9.9,3.5l24.6-2.5l-11.9-11l-2.5,0.8l-5-3.6
	l-1.3,1.6l-3.1-2.5l-2.7,0.2l-4.6-3.4l-4.4-5.3l4.6,0.8l6.6,2.8l-4.6-6.1l10.2,4.7l10.1,3l-1.6-2.2l6.1,2.4l1.8-1.9l4.1,4.8l0.2-3.3
	l-3.1-2.7l4.5-1.9l-9.5-11.3l6.8,5.7l-2.3-7.2l-2.8-0.9l-8.4-6.4l0.7-3.9l-10-4.9l1.6,2l-6.4-1.9l-0.6,2.8l-7.1-8.6l-3.9-3.1
	l-3.3,4.6l-5.5-9.9l4.5,2.7l3.1-4.4l-5-1.6l-0.2-6.5l3.3-1.9l4.6,2.6l0.6,2.3l9.7,0.4l3.3-2l-1.3,7.1l5.6,3.9l2.1-1.7l0.2,3.2
	l8.1-2.6l1.5,2.6l2.6-1.8l-3.6-5.1l-1.1-4.7l-2.3,0.1l-0.1-3.6l5.5,1.8l2-4.8l-1.2-6.7l-4.1,0.8l4.8-4l-2.6-5.8l3.3,0l-6.5-5.7
	l-8.5,8l-1.8-9.2l-2,0.5l-7.5,7.3l3.2-4.4l-3.5-2.3l-0.1-3.1l-3.9-1.6l-4.6,1.8l-1.9-3.7l-0.6,5l-2.5-1.4l0.3,3.9l-2.4-5.1l-1.4,2
	l-5.4-3.2l-3.4,1.5l0.9-2.8l-8.4,0l-4.3-2.6l-2.8,1.3l6-8.4l-3.1-0.5l-4,2l-0.1-2l12.9-5l-1.8-2.2l-5.7-0.2l-5.8,0.9l-5.4,2.4l5-4
	l0.4-2l6.5-2.9l-5-5.7l-5.2-1.4l0.7,4.1l-5,6.8l2.4-7.1l-2.5,0.6l-3.6,5.2l-1.1-3.2l6.5-10.6l-11.6-1.9l-6.4,8.4l2.4-7.1l-2.8-3.3
	l-0.8,5.2l-7.3,7.2l1.6-4.7l-1.4-0.2l0.8-12.8l-8.6,6.6l-2,5.9l0.1-6.3l-1.6-3.4l-1.2,6l-2-1.7l0.6-7.2L584,238l-0.3,6.8l-3.5-0.9
	l3.1-7.4l-1.1-4.7l-3.7,0.5l-3.7,9l0.3-5.8l-3.1,0.8l5.1-5l-1.6-3.9l-9.4-1.6l-0.4-1l-7.1,2l-2,5.7l8.1,2.3l-8.4-0.9l-0.7,2.8l3,1.3
	l-3.3,3.4l-2.8-7.4l-0.3,3.8l-3.4-4.7l-2.4,6.3l0.6,2.8l-3.5-2.4l1.3-6.2l-2.2,1.8l3.2-6.3l-2.8-6.2l-3.6-2.1l-3-7.8l-7.4,0.5
	l-5.7,5l1.6,2.2l-7.2,2.5l-0.1,2.1l7.5,2.1l-4.9-0.2l3.2,4.9l-8.1-0.9l1.2,7.6l4.1,1.3l-3.2,9.9l0.5,2.5l5.8,1.5l0.5,12.7l-2.5-3
	l0.3-5.2l-5.7-3.8l-3.3-4.8l-3.4-15.9l3-9.7l5.2-7.7l-1.1-2.5L509.2,214.4L509.2,214.4z M439.5,215.6l-6.4,1.3l-3.2,4.8l1.5,4.3l4-1
	l-0.5,5.8l0.9,2.5l-3.5,3.7l-4-0.1l-2.2-5.7l-3.6-0.1l-2.1,5.3l3.7,5.1l1.1,3.6l8.9,9.6l2.5,9.9l4.1,1.1l1-7.9l4.5,2l7-4l0.2-9.1
	l1.5-8.3l-3-0.6l-3.9-5.3l-3.3,0.8l3.7-4.5l4-2.2l-2.3-2.9l2.7-1.5l0.5-4.6l-3-1.7l-6.4,2.6L439.5,215.6L439.5,215.6z M451.4,212.9
	l-2.7-0.6l-6.2,4.3l1.5,1L451.4,212.9L451.4,212.9z M476.7,212.8l-8.4-0.7l-4.7,2.3l2.5,6.1L463,219l-2.5,5.8l0.5,6.3l-1.3,5.9
	l2.5,6.8l-0.7,4.7l2.3,1l-2.4,1.8l4.8,0.8l4.1-5.9l-3.2-8.1l10.8,0.7l11.1-21.1l-1.4-2.9L476.7,212.8L476.7,212.8z M454.3,203
	l-2.1,2.6l0.9-0.8L454.3,203L454.3,203z M463.9,203.4l-1.4-1l-0.5,2.1L463.9,203.4L463.9,203.4z M425.1,187.2l-2.5-3.2l-3.8,5.1
	l4.7,2.2L425.1,187.2z M470,184.2l-2.3-0.7l-4.5,2.7l-3.7,5.6l-1.1,3.9l6.1,3.7l2.7,3.2l5.6-0.4l1.2-3.6l-1-3.7l0.9-4.3L470,184.2
	L470,184.2z M461.1,183.2l-3.7,5l2.9-3.6L461.1,183.2z M435.5,175.3l-4.7,0.7l-1.8,2.8L435.5,175.3z M470.6,181.2l0.1-0.2l-2.7-3
	L470.6,181.2L470.6,181.2z M434.1,169.4l-8.4,0.8l1.1,2.4l6.5-0.3L434.1,169.4z M492.8,166.7l-0.3,0.7l0.9,0.1L492.8,166.7
	L492.8,166.7z M517.6,164.6l0.2-0.8l-0.9,0.6L517.6,164.6z M429.9,162l-1.3,5.6l4.5-1.2L429.9,162z M453.9,163.6l-9.6,0.8l0.4,13.7
	l-6.2-11.8l-2.4,4l3.6,0.1l-1,9.3l-4.2,0.1l-3.9,2l3.5,1.7l15.1-1.9l-4.3,1.3l-2,7.4l-2.3,2.4l3.1,2.8l4.4,0l6.2-2.8l-1.5-2.3
	l3.6-7.6l-2.5-1.5l3-7.4L453.9,163.6L453.9,163.6z M492,166l-2.2-5.8l-1.6,2.3L492,166z M403.5,159.4l-0.1,0.4l-1.5,4.4l0,0l1.5,4.1
	l-3.3,1.6L400,170l-0.2,0.6l0.1,0.4l3.5,3.9l-0.3,2l-5.4-0.2l0,0l-2.4,7.5l-1.4,4l-0.5,1.3l0,0l7.5-2.3l0.4,2.8l4-2.8l4,3.2
	l9.8-11.4l0-6.6l-4.2-1.3l-1.2,4.1l-3.8-2.5l-1-3.5l2.5-12.5l-3.9-1.6L403.5,159.4L403.5,159.4L403.5,159.4z M468.2,157.5l-1.7-0.9
	l-3.2,4.8l1.4,7.8l13.3,3.4l3.1,9.7l-2.2,7.6l3.8,11.7l3.9-4.2l0.8,4.2l3.9,1.9l2.4-0.7l2-4.5l2.6,4.9l4.5,0.5l7.2-2.7l0.6,1.2
	l12.3-3.2l2.6-4.9l2.8,4.7l5-0.7l6.6-2.9l2.9-7.3l-5.3-1l2.4-8.1l-3.4,0.3l-1.2-3.5l-2.3,1l-8-1.9l-2,1.9l-4.4-0.9l-2.3,4.2
	l-2.8,0.2l-4.3,3.4l-4.6-0.6l-2.5,2.2l-0.8-2.4l-2.1,2.2l-1.9-3.3l-6.5-5.4l-5,1.7l-0.3-2.4l4-0.4l-5.6-3.4l4.7,1.2l5.1-3l-6.1-2.5
	l-1.1-3.4l-2.3-0.7l-9.2,5.7l1.5-4.9l-1.9-4.8L468.2,157.5L468.2,157.5z M511.2,146.3l0-2.4l-1.3,0.1L511.2,146.3L511.2,146.3z
	 M489.5,145.4l-2.7-0.3l0,6.5l3.5,1.7l1.8-3L489.5,145.4z M429,146.5l0.7-2.3l-2.4-4.9l0.6,11.7l2.2,0.9L429,146.5L429,146.5z
	 M468.9,143l-3.7,1.7l0.7,4l9.6,0.5l1.9-5.4L468.9,143L468.9,143z M446.7,142.5l-6.1-0.5l1,0.8L446.7,142.5z M413.6,129.7l-0.6,1.7
	l-0.6,1.4l0,0l1-0.1l1.3-2.7L413.6,129.7L413.6,129.7L413.6,129.7z M440,134.3l1.5-2.2l-0.8-0.4L440,134.3L440,134.3z M498.2,129.2
	l-1.2,2.6l0,1.1L498.2,129.2z M417.4,118.9l-0.1,0.2l-1.4,4.1l-0.8,2.2l0,0l2.6,0.2l0.5-1.4L417.4,118.9L417.4,118.9z M549.6,114.1
	l-1.6-1.3l-0.3,1L549.6,114.1L549.6,114.1z M465,125.6l-4.3-2.4l-0.7,11.4l1.5,5l7.8,0.1l0.7-4.7l2.2-2.7l-5.2-3.3
	C467,128.8,465,125.6,465,125.6z M443.1,111.3l-7,0.9l1.9,4.7l-2,2.9l4.2,0l-1.7,4.7l-4.4,1.8l0.6,3.4l13.2,4.2l3.5,7.6l2.6-0.2
	l0.5-6.5l-1.4-2.2l0.6-8.4l-4-1.7l0-3.6L443.1,111.3L443.1,111.3z M460.1,98.5l0.4,7.3l1.4-6.7L460.1,98.5z M474.4,88l-1.3,1.1
	l2,0.8L474.4,88z M483.5,76.6l-4.1-0.8l-0.5,2.1l3.5,1.2l-5.4,2.2l-2.2,2.9l3,6.4l-4.1-0.5l-3.9,14.8l4.8,2.3l-3.6,4l1.1,2.7
	l14.7-1.3l-5.3,2.6l7.4,0.1l-10.5,1.6l-3,2.9l2.6,7.4l2.1-0.6l0.5,5.7l8.7,3.2l-0.6-3.3l6.5,2.5l0.8-8.5l2.3,2l0-5.6l1.2,2.7l3.8-8
	l4.7-4.1l-3.3-5.5l-2.5-1.5l-2.5,1.7l-0.9-13l-10-5.3l0.1-2L483.5,76.6L483.5,76.6z M538.9,32.4l-3.2,2.3l1.8,2.4l-6-0.1l-0.2,2.1
	l-6.6-0.6l3.5,7.6l-5.1-3.7l-7.3,0.4l-2.8,2.7l2.9,4.8l-4-1.7l0.3,6.8l-1.9,0.5l2.8,4l-2.4-0.8l-5.6-4.8l-0.9,2.7l-3.8,2.4l0.5,5.4
	l-5.3-2.5l-1.3,3.4l-5.5,1.8l-2.1,3.5l5,0.6l-1.3,3.3l1.8,1.7l-0.5,5l6.3-1.3l8.5-5.3l-4.9,6.3l-6.5,1.1l-1.6,2.1l6.6,3.9l4.3-6.4
	l3.9,7.2l2.7-3l8-0.7l4.3-4.7l3.5-10.5l1.8-1.2l-3.7,7.8l0.3,2.4l4.5-1.6l1.1,1.1l-6.5,4.2l2.6,1.7l-8.8,4.9l-3.9,3.9l5.6,4.4
	l0.1,3.6l3.6,2.5l-3.9,0.1l-1.7-3.7l-7.2-6.7l-8,0.4l0.6,10.4l4.5,1.3l3.5,7l3.6,3.4l-2.9,1.9l4.8-0.5l5.2-3l-5.5,7.1l-7.3-2.5
	l-8.7,11.3l0.2,2.9l5.1,2.3l3.2-1.8l-0.9,3.9l1.9,4.7l6,2.1l4-6l-3.5,7.5l-3.3,1.4l-7.1-6.7l-2.7-1.5l-5.3,2.7l3.9,12l-5.8,2.5
	l-3.2,5l0.3,4.1l8.1,3.2l0.4-5.1l2,3.9l4.9-0.6l3.8,1.2l2.6-3.2l3.8-0.6l2.2-3.5l4.2,2.9l0.5-3.3l6.2,1.5l-0.5,5.6l4.1-2.7l4.6-7.8
	l1.4,1.8l2.4-7.4l-1.5-2.3l-7.3-3.4l-3.2,3.8l-7-5.3l-0.6-2.9l4.9,3.9l7.6-2.1l4-5.7l-3.8-5.4l9.5-3.1l0.7-2.8l-3-2l4-2.9l-6.9-1.3
	l7.2-3.7l-1.4-3.3l-5.8-0.1l-2.4-2.3l2.7-2.9l5.3,0.6l-2-3.4l-7.6,0.1l6.5-2.8l4.9-3.6l-6.7-4.4l6.1-1.2l0.9,1.6l5.6-4.2l-0.9-10.1
	l2.6-1.7l0.9-7.5l5.6-16.5l-3.6,1.1l-7.4,7.7l8.1-12.7l3.9-14.8l-6-1.1l-4.8-2.9l-3.9,1.7l-2.4,4.7l-2.6,1.6l2.3-4.2l-2.2-2.5
	L538.9,32.4L538.9,32.4z"/>
<path id="NT" inkscape:connector-curvature="0" class="st0" d="M218.4,221.4l-0.1,2.5l0.6-0.5L218.4,221.4z M218.7,219.1l-0.4,0.5
	l0.1,0.6L218.7,219.1L218.7,219.1z M220.4,218.8l1.5-0.8l-0.3-0.2L220.4,218.8z M280.7,245l-0.9-0.3l0.6,0.5L280.7,245L280.7,245z
	 M349.7,270.3l-0.3-0.7l-0.6-0.2L349.7,270.3z M357.6,271.9l-3.6-1.7l0.9,1.2L357.6,271.9z M330.1,259.8l-1.2-1l0.2,0.7L330.1,259.8
	z M332.4,259.5l-1.3-0.5l0,0.5L332.4,259.5L332.4,259.5z M331,258.4l-0.8-0.3l-0.6,0.3L331,258.4z M329,257.9l-0.9-0.7l-1.4-0.6
	L329,257.9L329,257.9z M207.9,225.7l-15.3,20.3l0.5,1l-7,10.6l12.8,10l-6.1,9.7l-2.1,5.6l4.8,8.7l-6.8,8.9l-2.1,1.1l-1.1,5.5
	l-3.9,3.4l1.3,0.9l1.4,7l-1.3,2.4l3.8,1.6l-0.9,22l-4.2,2.2l0.8,6.6l-4.6,16.1l1.6,4.4l1.3-0.7l5.1,19.9l-3.3,9.9l0.8,3.2l5.9,1.5
	l1-1.1l3.3,3.9l5.4-0.4l2.3,1.8l-1.9,3l1,6.2l-1.8,8.4l1.4,1l0,0.5l3.9,1.8l7.8,3.6l3.9,1.7l12,5l4,1.6l5.3,2l32.1,11l5.4,1.6
	l38.5,10l5.6,1.1l4.4,0.9l27.1,4.8l4.5,0.7l32,3.8l4.6,0.3l0,0l4.3-41.4L400,399l-45.1-15.4l-11-6.2l-5.1-11.7l-1.5-1.8l-12.4-3.1
	l-15.6-23l-17.3-31l-5.5-11.6l12.8-28.1l-0.1-1.5l-2.4-4.2l-9.7-4.6l-6.6,5.8l-1.2-8.7l4.5-7.1l-6.3,0.9l-0.8,4.6L274,252l-2.6,3.8
	l-2.6,0.2l-1.2-8.6l2.4-9.1l-1.3-9.6l-2.3,6.8l-10.1,4.5l-0.1-2.9l-8.5-1.4l-8.2,6.2l0.8-3.7l-2.7-2.2l-5.5,2.2l-3.5-1.1l-1.9,5.8
	l-2.9-3.5l3.6-1.9l12-4.3l3.7,0.8l0.3,2l13.2-3.4l-4-5.2l-6.5,1.1l-12.4-0.7l-11.4,2.3l6-4.1l-1-1.9l-4-1l-4.6,2.1l-3-3.2l-1.6,5.5
	l-3.3,4.4L207.9,225.7L207.9,225.7L207.9,225.7z M379.6,232.2l-0.9-0.3l0.9,1.2l0.2,0.3l0,0l0.1-0.5L379.6,232.2L379.6,232.2z
	 M377.8,231.4l-0.2-0.6l-0.4-0.1L377.8,231.4z M378.9,230.5l0.1-0.4l-0.6,0.1L378.9,230.5L378.9,230.5z M380.8,229.3l-0.8-0.3
	l-0.1,0.7l0.4,0.8l0.2,0.5l0,0l0.4-1.5L380.8,229.3L380.8,229.3z M382.3,224l-3.4-1l2.2,5.4l0.2,0.2l0,0l1.1-3.4l0.3-0.9L382.3,224
	L382.3,224z M322.4,274.6l1.1-7.1l16.9,5.8l7.3,5.6l3.2-2.5l15.1,3.9l13.6-46.1l-0.1,0l-1.1-2.3l-4.9,1.7l-1.5-2.5l2.8-3.6l-7.2-7.8
	l-3,1.1l-1.3,3.3l-4.8-1.9l2.4-1.5l2.5-5.7l-1.6-4.9l-17.3,3.6l-10,8.3l0.9,2.4l-6.5,2.8l-2.8,3.5l0,3.3l6.7,1.5l-5,4l13.2,5.5
	l-12.6-0.5l-4.7,5.1l4.9,6.9l7.9,3.2l14,3.3l5.5,5.4l-0.2,3.6l-4.3,0.1l-10.7-5.6l-17.2-1.2l-2.2,1.3L322.4,274.6L322.4,274.6
	L322.4,274.6z M338.9,176.3l-10.6-2.2l-5.5,0.4l-1.1,10.7l-10.7,8.4l-0.6,4.3l-3.7-0.3l-2.7,5.3l-9.5,8.2l6,10.6l-1.4,9.8l0.4,2.4
	l8.2-1.8l3.2,0.8l6.1-0.7l7.5-11.4l5.8-0.7l2.3-3.5l12.8-5l12.4-3.3l1.2-1.3l-4.3-16.7l-10.3-4.1L338.9,176.3L338.9,176.3z
	 M351.9,156.6l2.5-2.8l-0.8,0L351.9,156.6L351.9,156.6z M369.3,155.7l-11.7,6.4l1.9,2.3L369.3,155.7L369.3,155.7z M403.5,159.4
	l-0.7,0.5l-1,0.2l-0.2,3l0.4,1.1l1.5-4.4L403.5,159.4L403.5,159.4z M393.5,189.6l0.5-1.3l1.4-4l2.4-7.5l-0.2-0.1l-5.3-0.9l-0.7-10.1
	l-6.7-6.3l-4.1-6.3l-6.5,3.8l-2.5,3.3l7.4,4.2l-6.1-0.9l-6.5,2.6l2.5,3.2l-3.2-1.3l-3.6,2.6l6,9l1.7-2.4l1.2,3.5l3.4-0.9l4.9-4
	l-0.4,2.9l8.5,2.7l1.5,2.3l-2.9,1.3l-4.7-1.3l-9.7,4.1l4.7,6.4l7.7-0.5l6.1-3.4L393.5,189.6L393.5,189.6L393.5,189.6z M391,147.7
	l-5.4,0.6l5.1,2.3L391,147.7z M386.4,133.9l-0.5-1.8l-4.3,3.7l-1.3-1.4l-23.2,8.9l-5.5,0l-3.9,3.3l2.9,2.8l6.6-0.6l-0.3,4.8
	l-1.6,2.7l5.6-1.7l2-6.3l0.3,5.4l7.8-10.2l-0.2,9.5l3.3-0.5l2.5-3.7l4.5-1.2L386.4,133.9L386.4,133.9z M397.2,126.5l-3.2,0l1.4,5.8
	L397.2,126.5L397.2,126.5z M412.3,129.3l-11.5,0.3l-2,5.5l1.7,6.6l6.8-0.8l2.6-1.9l-1.4-5.1l3.5-1l0.4-0.1l0.6-1.4l0.6-1.7
	L412.3,129.3z M415.1,125.4l0.8-2.2l1.4-4.1l0.1-0.2l-0.1-0.2l-12.6,1.7l-1.5,1.4L415.1,125.4L415.1,125.4L415.1,125.4z"/>
<path id="YT" inkscape:connector-curvature="0" class="st0" d="M85.6,356.7l13.2,11l37.8,27.7l3.5,2.3l55.9,31.3l3.9,1.8l0-0.5
	l-1.4-1l1.8-8.4l-1-6.2l1.9-3l-2.3-1.8l-5.4,0.4l-3.3-3.9l-1,1.1l-5.9-1.5l-0.8-3.2l3.3-9.9l-5.1-19.9l-1.3,0.7l-1.6-4.4l4.6-16.1
	l-0.8-6.6l4.2-2.2l0.9-22l-3.8-1.6l1.3-2.4l-1.4-7l-1.3-0.9l3.9-3.4l1.1-5.5l2.1-1.1l6.8-8.9l-4.8-8.7l2.1-5.6l6.1-9.7l-12.8-10
	l7-10.6l-0.5-1l15.3-20.3l0-0.1l-3.7-5.4l-3.1-18.7l-3.6-4.7l-3.1,0.1L171,223.4L149.9,248l-73.4,92.1l2,4.2l1.6-0.5l5.7,12.1
	L85.6,356.7L85.6,356.7z M205.1,204.9l-0.6-2.1l-1.4,1.9L205.1,204.9z"/>
<path id="ON" inkscape:connector-curvature="0" class="st0" d="M643.5,809.7l0.3-0.6l-0.5-1.1L643.5,809.7z M710.6,744.9l0.4-1.6
	l-1.8,1.6L710.6,744.9L710.6,744.9z M716.7,740.9l-1,0.2l-1.1,0.4L716.7,740.9z M660.9,734.8L660,737l1.1-1.3L660.9,734.8
	L660.9,734.8z M638.5,738l0.5-1.5l-0.9,0.4L638.5,738L638.5,738z M626,731.3l-2.1,0.8l0.5,0.4L626,731.3L626,731.3z M622.9,732.1
	l-4.9,2.3l17.6,1.4l2,0.9l1.7-5.2l-7.1-1.5L622.9,732.1z M635.4,727.1l-1.9,0.6l2.2,0.7L635.4,727.1L635.4,727.1z M605.8,728.8
	l3.6,2.3l-0.1-1.8L605.8,728.8L605.8,728.8z M598.1,718.5l-0.6,0.6l0.5-0.4L598.1,718.5L598.1,718.5z M581.1,705.3l-3.4-0.4
	l-0.3,1.7L581.1,705.3z M536.9,702.5l-1-0.4l-0.4,0.5L536.9,702.5z M554.8,690l-0.8-0.6l0.3,0.5L554.8,690L554.8,690z M551,690l-4,0
	l0.2,1.4L551,690L551,690z M638.1,620.3l-1.7,1.7l0.5,1.6l3.5,5.9l0,0l-0.8-3.2l-0.6-2.1L638.1,620.3L638.1,620.3L638.1,620.3z
	 M518.3,538.6l-43.8,62.1l-17.1,19.7l2.4,67l0.8,0.3l3.3,1l1.9,7.2l11.1,5.2l1.1,1.8l6-2.6l10.2,4.6l4.9-0.3l7.7,5l7.8-3.1l1.4,1.6
	l8.5-1.1l2.2,1.7l5.3-1.8l2-3.4l-0.1-3.5l4.7-2.3l3.9-7.7l1.5,0.8l-1.7,7.5l4.4-7.9l-2.4-3.3l13.7,2l5.7-1.6l3.6,0.2l5.6,9.6
	l9.6,4.3l7.2-1l0,6.7l4.9,3.2l-0.8,7l5.8,0.9l-1.9,3.8l0.3,3.3l7.8,2.7l18.1-0.7l12.9,0l11.2-1.1l4.8,3.9l7.1,3.4l0.7,3l7.7,6.1
	l-0.2,1.7l-4.2-0.9l1.3,6.9l-3.5,0.1l-5.6-2.5l-2.8,3.3l-1.6-3.9l-6.1-5.5l-4.3-0.7l4.5,4l2.1,10.1l-1.9,3l-0.9,4.9l3.3,12.9
	l-6.9,8.7l-1.3,9.6l2.2,0.3l-1.1,4l-4.8,0.5l-0.6,5.7l4.1,0.4l4.5-1.9l4.8-5.6l2.6-0.4l0.4-3.1l10.3-7.6l6.1,0.2l0.6-1.4l8.9-6.8
	l9.5-3.1l-3.2-6.8l-4.1,2.4l-5.4-0.1l2.5-7.8l4.2-4.6l9.5-5.2l16-3.3l2.8-2l-3.7-1.7l12.1-9.4l6.5-11.8l5.9-4.7l0.4-0.1l0.5-1
	l1.3-2.6l0.2-0.4l1.1-1.2l0.2-0.3l-2.3-1.2l-0.4-4l-12.1,3.6l-5.1,4.8l-3.4-1.5l-8.1,0.9l-1.5-2.1l-3.8-0.2l-7.8-4.1l-2.7-0.6
	l-14.1,0.9l-4.1-2.6l-5.4-5.5l-6.9-9.3l-1.9-10.1L640.6,630l0,0l-8.4-4.8l-11.6-8.9l-8.4-4.7l-1.6-3.9l-10.1-8l-1.5-15.4l-4.1-5.8
	l-1.6-4.3l0.6-7l-4.7-7.7l-15.4,0.1l-6.1,2.5l-6.7,1.3l0.2-2.4l-6.8-3.6l-18-3.8l-6.9-7.4L518.3,538.6L518.3,538.6L518.3,538.6z"/>
<path id="QC" inkscape:connector-curvature="0" class="st0" d="M738.9,712l-2.3,0.8l0.2,1.1L738.9,712L738.9,712z M738,708.6
	l0.1-0.7l-0.2,0.7L738,708.6z M741.2,703.5l-3,3.6l1.2,0L741.2,703.5z M742.5,706.4l-0.4-3.7l-4.5,7L742.5,706.4z M764.5,671.2
	l1.3-1.9l0.4-1.8L764.5,671.2z M768.6,659.3l0.5-1.3l-1,1.4L768.6,659.3z M779.3,634l0.1-0.2l-0.5,0.3L779.3,634L779.3,634z
	 M731.1,720.9l0.2,0l36.3-13.3l3.6-1.8l0.9-5.5l5.2-1l2.1-4.1l-1.8-1.3l2.6-8.3l-1-10.9l-1.2-5.4l3.6-16.8l3.3,1.7l0.1,0.2l5.8-8.6
	l-1.7-4l1.7-4.5l9.9-1.1l4.9-5.4l0,0l7.8-5.7l0.9-2.4l4.1,0.2l6-1.8l3.3-4.9l-0.4-2.7l4.4-6.1l-0.6-1.9l-6.2-2.3l3.9-0.8l-2-1.7
	l-6.8-0.9l-9.9,2.4l-6.9,4.4l-6.2,6.2l-10.8,12l-10.5,18.7l-3.4,14.4l-1.9,5.9l-12.7,14.7l-5.1,4.1l-0.3,2.3l-8.5,12.1l-1.1,4.9
	l0.7,5.8l-2.2,1.2l-6.4,7.3l-2.9,4.3L731.1,720.9L731.1,720.9z M820.3,582.8l-2.4,3.9l3.6-0.1l16.3,2.7l12.9-3.3l3.6-3.4l-19-2.6
	L820.3,582.8L820.3,582.8z M821.2,577.1l-1-0.6l-0.1,0.4L821.2,577.1L821.2,577.1z M865.2,544l1.1,1.6l0.1-0.7L865.2,544L865.2,544z
	 M869,538.6l-0.5-0.6l0.1,0.8L869,538.6L869,538.6z M868.9,531.9l0.4-1.8l-0.6,1L868.9,531.9L868.9,531.9z M870,529l0.1-1.1
	l-0.7,0.7L870,529L870,529z M719.9,455.5l-1.4-1.9l-0.2,0.5L719.9,455.5z M701.1,449.9l0.4-1.2l-0.6,0.3L701.1,449.9z M679.4,418.2
	l-0.1-1.6l-0.3,0L679.4,418.2L679.4,418.2z M656.2,408.9l0.4-0.3l-0.7,0.5L656.2,408.9z M638.1,620.3l1,3.9l0.6,2.1l0.8,3.2l0.4,0.5
	l2.5,2.2l0.4,1.1l-1.7-2.1l-1.5-1.3l14.2,54.4l1.9,10.1l6.9,9.3l5.4,5.5l4.1,2.6l14.1-0.9l2.7,0.6l7.8,4.1l3.8,0.2l1.5,2.1l8.1-0.9
	l3.4,1.5l5.1-4.8l12.1-3.6l0.4,4l2.3,1.2l0,0l3.5-3.4l-4.8-2.3l5.1-3.1l4.4-5.1l1.1-6.2l7.3-10l10.6-10.4l5.2-10.4l4.5-14.6l0-4.8
	l-2.7-3l-8.6,0.3l2-1l9.8,0.3l2.9-10.8l-0.4-2.4l3.7-4.9l-0.3-2.9l9-9.1l2.5-5.9l0-9.6l2.7-6.2l2,0.1l10.7-7.3l12.9-5.4l1.4-1.5
	l18-8.9l8-1.4l0.3,1.1l17.9-14.4l-1-0.8l3.6-13.3l1.6,1.5l-0.5-10.3l3.4-2.2l7.4-9.2l2.9-0.3l0.4-0.1l-15.3-3.6l-12.5,7.4L817.1,541
	l-9.9,5l-0.7-2.8l-7-3.9l1.7-3.5l-3.4,2.3l2.1,3.3l1.1,8.3l2.8,3.5l-4.2,2.4l-7.7,0.9l-5.6-2.7l-7.8,3l-4.3-8.6l-5,1.5l-8.8-4.7
	l3.8-1.1l-2.3-7.2l-4.2,0l-5.7-4.9l-2.7-1L747,523l4.1-2.5l-0.1-5.1l-5.4-3l8.3,1.5l0.5-1l-3.4-8.4l7.9,2.7l2.9-0.3l7-4.3l14.8,0.3
	l-1.9-5.8l1.9-1.7l-0.7-5.9l-2.6,0.6l1.5-3.3l-4.1,0.9l-1.7-5.3l-5.7-6.9l-2.4,0.2l-0.9-5.4l-3.2-2.8l-0.6-9.6l-4.2-8.2l-6.4-2.4
	l-3.3-2.8l2.7-6.6l0.1-7.4l-1.2-0.6l-4,3.9l-1.9-1l-6.1,1.3l-0.4-2.1l4.9-1.8l-2.2-0.6l-2.3-7.2l-5.8,0.3l0.1-2.5l-3.6-5l1.8-2.8
	l-2.9-0.6l2.2-2.4l-0.1,0l-2.8,2l3.4,8.8l-4.6,1.8l2.1,9.9l0.6,7.3l3.2,4.4l0.5,4.9l-3.5-5.7l-2.9-0.9l-0.4,6.6l-5.6,7.4l-0.3,4.5
	l-2.7-5.2l-1.8,5.4l-2.4-7.7l-1.3,2.4l-6.5-5.5l-4.8,1.7l-5.4,6l-3-0.2l1.4-4.2l3.8,1.1l-1.5-9.1l-5-1.6l0.7-4l-1.9-3.3l-6.4,0.3
	l4.6-3.7l-4.7-7.4l1.2-8.2l-2.2-1.9l-3.2,5.4l-2.4-3.6l-4.1,2.5l-10.7-1.3l-0.8-6.2l-4.1,1.5l-2.8-4l-3.5-0.1l-1.6-3.1l-2.4,0.4
	l-10-3l-6,7l-6.7,0.5l-0.4,1.2l-17.8-1.6l-4.3,7.4l4.6,10.2l4.3,2.9l-2.6,12.8l5.9,4.5l0,2.6l2.7,6.3l3.1-0.1l-0.1,4.9l2.3,3.5
	l-3.1-1.5l-1.6,5.2l1.2,1.2l-3.9,11.8l0.2,3.8l12.5,5.4l9,7.2l5.7,10.6l3.6,11l-2.9,17.7l-8.9,13.4l-10.7,8.6l-1.5,2.2l5.6,7.1
	l3.2-0.3l3.2,10.6l1.4,0.4l2.4,9.5l3.3,4.2l4.7,9.6l-2.4,6.4l3.4,7.8l1,6.4l-3.6-5.2l-5.9,0L638.1,620.3L638.1,620.3L638.1,620.3z"
	/>
<path id="NB" inkscape:connector-curvature="0" class="st0" d="M831.6,685.5l0.6,2.7l1-0.2L831.6,685.5z M832.4,620l0.7-1.5
	l-0.6-0.9L832.4,620L832.4,620z M805.6,630.7l-4.9,5.4l-9.9,1.1l-1.7,4.5l1.7,4l-5.8,8.6l0.2,0.3l9.9-5.5l6.4,2.6l10.9,23.5l6.9,5.8
	l7.2-1.3l4.3,0.2l11.4-10.3l4.8-7.3l2.6-7.6l3.7-1.4l0,0.1l0.4-3l0.8-0.4l0.1-0.5l-0.2-0.1l-4.3-2.8l-5.8-1.1l-7.4-6.8l-6.6-0.7
	l1.6-2.9l0.6-6.2l-3.1-5.4l-3.6,1.6l-3.3,5.6l-6.3-3.4l-7.6,1.2L805.6,630.7L805.6,630.7L805.6,630.7z"/>
<path id="NS" inkscape:connector-curvature="0" class="st0" d="M856.6,702.6l0.2-1.2l-0.7-0.5L856.6,702.6L856.6,702.6z
	 M922.8,657.3l-2.2,1.3l-0.9,0.4L922.8,657.3L922.8,657.3z M854.5,649.6l-0.1,0.5l-0.8,0.4l-0.4,3l0,0.1l-3.8,9.2l-0.1,2.9l7-4.5
	l8.7-4.1l-5.2,7.8l-7.9,4l-6.3,10.5l-2.2,8.2l3.4,11.1l8.6,2.9l3.7-2.7l-1-2.7l4-5.7l1.7-15.2l3.5-4.7l1.5,3.4l4.6-2.1l-1.7-2.3
	l3.1-3.7l13.3-13.2l0.8-1.8l7.2-6.7L896,642l-6.1,2.4l-1-4.5l-6.7,1.6l-1.6-2.8l-7.2,7.1l-6.4,1.3l-7.7,3.2L854.5,649.6L854.5,649.6
	L854.5,649.6z M904.7,622.5l-0.8,0.4l0.3,0.2L904.7,622.5z M886.5,611.2l-2.5,9.1l2.6,17.2l4.3,2.6l8.8-6.7l1.5-5.9l3.1-3.2
	l-2.2-3.8l-6.5,2.9l-2.6,7.1l4-3.4l-6,9.5l2.1-14.4l-1.1-5.4L886.5,611.2L886.5,611.2z"/>
<path id="NL" inkscape:connector-curvature="0" class="st0" d="M947.1,569.3l-0.3-0.6l-0.3,0.5L947.1,569.3L947.1,569.3z
	 M935.3,576.2l-0.8,0.2l-0.2,0.4L935.3,576.2L935.3,576.2z M952.4,563.1l-0.4-1.1l-0.2,0.1L952.4,563.1L952.4,563.1z M930.9,570.9
	l-1-0.5l-1,1.2L930.9,570.9L930.9,570.9z M951.6,559.2l-1-1.6l-0.6-0.4L951.6,559.2z M947.2,548l0.6,1.2l3.5-1.9L947.2,548
	L947.2,548z M925.4,533l-0.8,0.8l0.6,0.7L925.4,533L925.4,533z M925.1,529.7l-1.1,2l-1.1,2.4L925.1,529.7L925.1,529.7z M928.5,525
	l0,3.2l1.3-1.9L928.5,525L928.5,525z M903.5,517.8l-1.2,1.8l0.9,0.1L903.5,517.8z M885.3,527.8l0.1,0.6l0.3-0.5L885.3,527.8z
	 M901.3,516.3L901,515l-0.5,0.1L901.3,516.3z M890.9,507l-4.8,12.2l1.1,8.3l-2.4,3.3l3.1,0.1l-1.3,6l3.1,15.4l0.3,7.4l3.7,0.7l0.9,3
	l-4.9,2.3l1.4,8.9l-2.4-3.2l-1.8,7.6l5-4.7l4.8-2.3l-3.7,9.3l-2.3,8.4l3.4,3.7l2.4,0l7.6-8.3l0.2,1.5l4.5-3.4l9.9-3.2l9.5-7.3
	l-1.7-3.3l3-4.3l3.1,5.1l-1.9,3.1l5.1-2.8l1.4-4.3l5.2-0.3l-2,4l0.3,5.9l-2.4,2.3l1.2,4.5l5.5-4.3l0.7-4l-0.9-7.5l1.4-11.5l3.2-0.7
	l6.3,4.7l2.5,12.2l2.9-9.6l6.5,6.9l3.6-1.7l-1.2-8.5l-2.7-9.3l-3.5-3l-3.2,7l-1.8-3l-0.2-8.6l-1.7,0.3l-0.2,12.8l-4.6-1l-0.6-4.8
	l-3.8,0.8l2.8-8.3l1.8-1.1l-2.3-5.3l-2.8,7.4l-7.1-2.6l-3,0.5l2.7-12.2l-3.4-0.1l-5.7,1.8l-3.9,2.4l-1.2,5l-2.8,0.2l-0.5,5.4l-2-6.7
	l-2.6,0.4l-2.1,3.7l-2.4-0.4l-2.2,3l0-12.7l-5.9,3.8l-1.7-1.8l-1.9,11.2l-3.5-5.3l0-13.8l-1.4-2l0.6-8.4l-4.1,0l3-7.7l-1.9-1
	L890.9,507L890.9,507z M893.3,499.4l-1.1-1.1l0.1,0.9L893.3,499.4L893.3,499.4z M880.1,488.8l-1.2-0.2l0,0.2L880.1,488.8
	L880.1,488.8z M877.6,484.3l-0.6,0.3l1.1,0.5L877.6,484.3L877.6,484.3z M876.9,482.9l0.3,1.3l0.2-0.9L876.9,482.9L876.9,482.9z
	 M871.5,477l-0.2,1.5l1.7-0.9L871.5,477L871.5,477z M858.5,480.4l-0.8,0.8l0,0.9L858.5,480.4L858.5,480.4z M850.7,473.3l-0.9,0.1
	l0.1,0.2L850.7,473.3L850.7,473.3z M849.3,469.3l-0.5-0.1l-0.4,0.3L849.3,469.3L849.3,469.3z M849.7,468.9l0-0.5l-0.4,0.5
	L849.7,468.9z M848.2,469.3l0.2-0.6l-1.2,0L848.2,469.3L848.2,469.3z M838.1,467l-2.3,1.5l1.8,1.3L838.1,467z M797.9,463l-1.1,0
	l2.5,1.7L797.9,463z M788.1,461.9l2.6,0.5l0.4-1.8L788.1,461.9L788.1,461.9z M791.3,458l-0.5,1.2l3.2-0.9L791.3,458z M786.9,451.4
	l-0.2,4.5l3-0.7L786.9,451.4z M777,442.9l-0.9,1.3l1.6,1.1L777,442.9L777,442.9z M773.9,437.9l-1,0.6l1.7,1.4L773.9,437.9
	L773.9,437.9z M730.8,408.9l-2.2,2.4l2.9,0.6l-1.8,2.8l3.6,5l-0.1,2.5l5.8-0.3l2.3,7.2l2.2,0.6l-4.9,1.8l0.4,2.1l6.1-1.3l1.9,1
	l4-3.9l1.2,0.6l-0.1,7.4l-2.7,6.6l3.3,2.8l6.4,2.4l4.2,8.2l0.6,9.6l3.2,2.8l0.9,5.4l2.4-0.2l5.7,6.9l1.7,5.3l4.1-0.9l-1.5,3.3
	l2.6-0.6l0.7,5.9l-1.9,1.7l1.9,5.8l-14.8-0.3l-7,4.3l-2.9,0.3l-7.9-2.7l3.4,8.4l-0.5,1l-8.3-1.5l5.4,3l0.1,5.1L747,523l2.1,7.7
	l2.7,1l5.7,4.9l4.2,0l2.3,7.2l-3.8,1.1l8.8,4.7l5-1.5l4.3,8.6l7.8-3l5.6,2.7l7.7-0.9l4.2-2.4l-2.8-3.5l-1.1-8.3l-2.1-3.3l3.4-2.3
	l-1.7,3.5l7,3.9l0.7,2.8l9.9-5l35.7-19.5l12.5-7.4l15.3,3.6l0,0l4.9-11.3l0.6-5.6l-1-7.8l-7.2-3.1l-2-5.5l0.5-2.8l-6.4-3.4l-6.8,0.6
	l0.3-2.9l-4.5,3.6l-0.3,6.8l-1.8-2.2l-0.4-4.8l-5.7-3.5l-2.5,0.3l-7.4,5l6.6-1.9l-8.8,7.9l0.3,5.4l-2.5,2.8l-4,8.3l-4-6.7l5.9-5.9
	l3.3-5.6l-4.1,2l8.1-9l-0.5-1.8l5.3-5.2l-1.6-3.6l-15.3,4.9l-3.9-3.2l-2,3.2l0.6-4.6l-2.8,2.7l-3.8-0.9l-2.5,5.9l0-4.1l-3.4,3.6
	l-2.8-5l-1.2-4.9l-4.5,2.5l-9.1-3.9l-4.4-0.1l-11.1-4.6l6.2-1.2l1-3.7l-1.9-6.2l-3.1,1.5l-2.5-3.9l-3.8,1.7l1-2.9l-1.3-4.4l-6-1
	l-3.1-1.7l-2.7,4l0.9-10.3l-3.6,2.9l-3.6-7.7l-1.9,1.4l-0.7-3.6l-6.3,2.7l2.9-2.8l-3-3.2l-1.2,2.6l-9.4-10.9l-2.8-1.1l-2.7,4l1-5.7
	L730.8,408.9L730.8,408.9L730.8,408.9z M731,407.3l-0.4,0.4l-0.1,0.5l0.2,0.4l0,0l0.8,0L731,407.3L731,407.3L731,407.3z"/>
<path id="PE" inkscape:connector-curvature="0" class="st0" d="M847.6,635.3l-1.2-3.9l-1.7,3.7l0.2,5.4l4.2,0l0.8,2.4l5.4-1.5
	l1.1,1.6l12.3-0.4l2.3-5.6l-1.4-0.2l3.7-4.7l-3.3-0.9l-6.4,4.5l-4,1.7l-3.8-0.2l-3.4,2.5L847.6,635.3L847.6,635.3z"/>
<g>
	<path d="M246.4,564.6l-0.9,4.7h-3.9l4.5-20.6h4.8l4,20.6H251l-0.9-4.7H246.4z M249.7,561.5l-0.7-4.3c-0.2-1.3-0.5-3.3-0.7-4.7h-0.1
		c-0.2,1.4-0.5,3.5-0.7,4.7l-0.8,4.3H249.7z"/>
	<path d="M257.1,549c1.2-0.3,2.8-0.4,4.6-0.4c1.9,0,3.8,0.2,5.2,1.5c1.1,0.9,1.6,2.3,1.6,3.7c0,1.8-0.9,3.6-3,4.5v0.1
		c2.4,0.7,3.7,2.7,3.7,4.9c0,1.7-0.6,3-1.5,4c-1.2,1.3-3.3,2.1-6.8,2.1c-1.5,0-2.8-0.1-3.7-0.2V549z M261.1,557.2h0.9
		c1.4,0,2.5-1.2,2.5-2.9c0-1.5-0.7-2.7-2.4-2.7c-0.4,0-0.8,0-1,0.1V557.2z M261.1,566.3c0.2,0.1,0.5,0.1,0.9,0.1c1.6,0,3-1,3-3.1
		c0-2-1.4-3.1-3-3.1h-0.9V566.3z"/>
</g>
<g>
	<path d="M129.7,521.6c1.2-0.3,2.8-0.4,4.6-0.4c1.9,0,3.8,0.2,5.2,1.5c1.1,0.9,1.6,2.3,1.6,3.7c0,1.8-0.9,3.6-3,4.5v0.1
		c2.4,0.7,3.7,2.7,3.7,4.9c0,1.7-0.6,3-1.5,4c-1.2,1.3-3.3,2.1-6.8,2.1c-1.5,0-2.8-0.1-3.7-0.2V521.6z M133.8,529.8h0.9
		c1.4,0,2.5-1.2,2.5-2.9c0-1.5-0.7-2.7-2.4-2.7c-0.4,0-0.8,0-1,0.1V529.8z M133.8,539c0.2,0.1,0.5,0.1,0.9,0.1c1.6,0,3-1,3-3.1
		c0-2-1.4-3.1-3-3.1h-0.9V539z"/>
	<path d="M154.4,541.6c-0.6,0.3-1.7,0.5-3.1,0.5c-5.3,0-7.8-4.3-7.8-10.2c0-7.8,4.3-10.8,8.3-10.8c1.4,0,2.4,0.3,2.8,0.5l-0.7,3.4
		c-0.5-0.2-1-0.4-1.9-0.4c-2.3,0-4.3,2-4.3,7.1c0,4.9,1.9,6.8,4.3,6.8c0.7,0,1.4-0.2,1.9-0.3L154.4,541.6z"/>
</g>
<g>
	<path d="M342.8,594.6c-0.1-2-0.2-4.6-0.2-6.8h-0.1c-0.4,2.2-0.9,4.7-1.3,6.3l-1.8,7.4h-2.8l-1.7-7.2c-0.4-1.7-0.9-4.2-1.3-6.5h-0.1
		c-0.1,2.2-0.2,4.8-0.3,6.9l-0.3,7.2h-3.5l1.5-20.6h4.2l1.7,7.5c0.6,2.6,1.1,4.9,1.5,7.2h0.1c0.3-2.3,0.8-4.6,1.3-7.2l1.6-7.5h4.2
		l1.3,20.6h-3.6L342.8,594.6z"/>
	<path d="M349.7,581.5c1.2-0.3,2.8-0.4,4.6-0.4c1.9,0,3.8,0.2,5.2,1.5c1.1,0.9,1.6,2.3,1.6,3.7c0,1.8-0.9,3.6-3,4.5v0.1
		c2.4,0.7,3.7,2.7,3.7,4.9c0,1.7-0.6,3-1.5,4c-1.2,1.3-3.3,2.1-6.8,2.1c-1.5,0-2.8-0.1-3.7-0.2V581.5z M353.7,589.7h0.9
		c1.4,0,2.5-1.2,2.5-2.9c0-1.5-0.7-2.7-2.4-2.7c-0.4,0-0.8,0-1,0.1V589.7z M353.7,598.8c0.2,0.1,0.5,0.1,0.9,0.1c1.6,0,3-1,3-3.1
		c0-2-1.4-3.1-3-3.1h-0.9V598.8z"/>
</g>
<g>
	<path d="M814.4,662.2v-15.8h2.8l2.4,6.2c0.5,1.2,1.2,3.3,1.7,4.6h0c-0.1-1.7-0.3-4.4-0.3-7.3v-3.5h2.7v15.8h-2.8l-2.4-6
		c-0.5-1.3-1.2-3.3-1.6-4.8h0c0.1,1.6,0.2,4,0.2,7.2v3.6H814.4z"/>
	<path d="M826.5,646.6c0.9-0.2,2.2-0.3,3.5-0.3c1.5,0,2.9,0.2,4,1.1c0.8,0.7,1.2,1.8,1.2,2.9c0,1.4-0.7,2.8-2.3,3.5v0.1
		c1.8,0.5,2.8,2,2.8,3.8c0,1.3-0.4,2.3-1.2,3.1c-0.9,1-2.5,1.6-5.2,1.6c-1.2,0-2.2-0.1-2.9-0.2V646.6z M829.6,652.9h0.7
		c1.1,0,1.9-0.9,1.9-2.2c0-1.2-0.5-2-1.8-2c-0.3,0-0.6,0-0.8,0.1V652.9z M829.6,659.9c0.2,0,0.4,0,0.7,0c1.2,0,2.3-0.8,2.3-2.4
		c0-1.6-1.1-2.4-2.3-2.4h-0.7V659.9z"/>
</g>
<g>
	<path d="M797.6,522.1v-20.6h3.7l3.2,8.1c0.6,1.6,1.6,4.3,2.2,6h0.1c-0.1-2.2-0.4-5.7-0.4-9.5v-4.6h3.5v20.6h-3.7l-3.1-7.8
		c-0.7-1.7-1.6-4.3-2.1-6.2h-0.1c0.1,2.1,0.2,5.3,0.2,9.4v4.6H797.6z"/>
	<path d="M813.4,501.5h4v17.2h5.3v3.4h-9.3V501.5z"/>
</g>
<g>
	<path d="M882.1,681v-15.9h2.8l2.5,6.2c0.5,1.2,1.3,3.3,1.7,4.6h0c-0.1-1.7-0.3-4.4-0.3-7.4v-3.5h2.7V681h-2.8l-2.4-6
		c-0.5-1.3-1.3-3.4-1.6-4.8h0c0.1,1.6,0.2,4.1,0.2,7.2v3.6H882.1z"/>
	<path d="M893.9,677.8c0.6,0.4,1.7,0.6,2.6,0.6c1.5,0,2.2-0.8,2.2-1.8c0-1.2-0.7-1.7-2.1-2.6c-2.2-1.3-3-3-3-4.4
		c0-2.5,1.7-4.7,5-4.7c1,0,2,0.3,2.5,0.6l-0.5,2.7c-0.4-0.3-1.1-0.5-2-0.5c-1.3,0-2,0.8-2,1.7c0,0.9,0.5,1.4,2.2,2.5
		c2.1,1.3,2.9,2.9,2.9,4.6c0,2.9-2.1,4.8-5.3,4.8c-1.3,0-2.5-0.3-3-0.6L893.9,677.8z"/>
</g>
<g>
	<path d="M558.8,635.5c0,7.8-2.8,10.9-6.7,10.9c-4.7,0-6.5-5-6.5-10.6c0-5.6,2.2-10.5,6.8-10.5C557.4,625.3,558.8,630.8,558.8,635.5
		z M549.8,635.9c0,4.7,0.9,7.1,2.5,7.1c1.7,0,2.3-3.1,2.3-7.2c0-3.6-0.6-6.9-2.4-6.9C550.7,628.8,549.8,631.4,549.8,635.9z"/>
	<path d="M561.4,646.2v-20.6h3.7l3.2,8.1c0.6,1.6,1.6,4.3,2.2,6h0.1c-0.1-2.2-0.4-5.7-0.4-9.5v-4.6h3.5v20.6h-3.7l-3.1-7.8
		c-0.7-1.7-1.6-4.3-2.1-6.2h-0.1c0.1,2.1,0.2,5.3,0.2,9.4v4.6H561.4z"/>
</g>
<g>
	<path d="M854.2,611.9c0.9-0.2,2.1-0.3,3.2-0.3c1.8,0,3.3,0.3,4.3,1.2c0.9,0.8,1.4,2.2,1.4,3.5c0,1.7-0.5,2.9-1.4,3.8
		c-1,1-2.6,1.5-3.9,1.5c-0.2,0-0.4,0-0.6,0v5.9h-3.1V611.9z M857.3,619.1c0.1,0,0.3,0,0.5,0c1.6,0,2.3-1.1,2.3-2.6
		c0-1.4-0.6-2.5-2-2.5c-0.3,0-0.6,0-0.8,0.1V619.1z"/>
	<path d="M871.8,620.6h-3.6v4.3h4.1v2.7H865v-16h6.9v2.7h-3.8v3.7h3.6V620.6z"/>
</g>
<g>
	<path d="M707.8,592.4c-1.8-0.7-3.8-1.8-5.3-2.7c-0.5-0.2-0.8-0.4-1-0.4c-4,0-6.5-3.9-6.5-10.6c0-5.5,2.2-10.5,6.8-10.5
		c5,0,6.4,5.5,6.4,10.2c0,5.1-1.2,8.3-3.1,9.3v0.2c1.3,0.6,2.8,1,4,1.5L707.8,592.4z M704.1,578.6c0-3.9-0.6-6.9-2.4-6.9
		c-1.7,0-2.5,3.1-2.5,7c0,4.2,0.7,7.2,2.5,7.2C703.4,585.8,704.1,582.9,704.1,578.6z"/>
	<path d="M720.7,588.8c-0.6,0.3-1.7,0.5-3.1,0.5c-5.3,0-7.8-4.3-7.8-10.2c0-7.8,4.3-10.8,8.3-10.8c1.4,0,2.4,0.3,2.8,0.5l-0.7,3.4
		c-0.5-0.2-1-0.4-1.9-0.4c-2.3,0-4.3,2-4.3,7.1c0,4.9,1.9,6.8,4.3,6.8c0.7,0,1.4-0.2,1.9-0.3L720.7,588.8z"/>
</g>
<g>
	<path d="M419,582c0.8,0.5,2.2,0.8,3.4,0.8c1.9,0,2.8-1,2.8-2.3c0-1.5-0.9-2.2-2.7-3.4c-2.8-1.7-3.9-3.9-3.9-5.7
		c0-3.3,2.2-6.1,6.5-6.1c1.3,0,2.6,0.4,3.2,0.7l-0.6,3.5c-0.6-0.4-1.5-0.7-2.6-0.7c-1.7,0-2.5,1-2.5,2.1c0,1.2,0.6,1.9,2.8,3.2
		c2.7,1.7,3.7,3.7,3.7,5.9c0,3.8-2.8,6.2-6.8,6.2c-1.7,0-3.3-0.4-3.9-0.8L419,582z"/>
	<path d="M431.5,565.5h4v9.3h0.1c0.3-0.9,0.7-1.8,1-2.7l2.8-6.6h4.4l-4.6,9l4.7,11.7h-4.4l-3-8.5l-0.9,1.7v6.8h-4V565.5z"/>
</g>
<g>
	<path d="M247.2,383.5v-20.6h3.7l3.2,8.1c0.6,1.6,1.6,4.3,2.2,6h0.1c-0.1-2.2-0.4-5.7-0.4-9.5v-4.6h3.5v20.6h-3.7l-3.1-7.8
		c-0.7-1.7-1.6-4.3-2.1-6.2h-0.1c0.1,2.1,0.2,5.3,0.2,9.4v4.6H247.2z"/>
	<path d="M265.2,366.6h-3.6v-3.7h11.3v3.7h-3.7v16.9h-4V366.6z"/>
</g>
<g>
	<path d="M129.4,337v-7.9l-4.5-12.7h4.3l1.4,4.9c0.4,1.3,0.8,2.8,1.1,4.4h0.1c0.2-1.5,0.6-3,0.9-4.5l1.2-4.8h4.2l-4.6,12.6v8H129.4z
		"/>
	<path d="M142.7,320.1H139v-3.7h11.3v3.7h-3.7V337h-4V320.1z"/>
</g>
<g>
	<path d="M420.3,388.8v-20.6h3.7l3.2,8.1c0.6,1.6,1.6,4.3,2.2,6h0.1c-0.1-2.2-0.4-5.7-0.4-9.5v-4.6h3.5v20.6h-3.7l-3.1-7.8
		c-0.7-1.7-1.6-4.3-2.1-6.2h-0.1c0.1,2.1,0.2,5.3,0.2,9.4v4.6H420.3z"/>
	<path d="M440,368.2v13.4c0,3,0.9,3.9,2,3.9c1.2,0,2-0.8,2-3.9v-13.4h4v12.7c0,5.3-2,8.2-6,8.2c-4.3,0-6-3-6-8.1v-12.7H440z"/>
</g>
</svg>
